<svg xmlns="http://www.w3.org/2000/svg" xmlns:xlink="http://www.w3.org/1999/xlink" width="356.833" height="94.736" viewBox="0 0 356.833 94.736">
  <defs>
    <clipPath id="clip-path">
      <rect id="矩形_7165" data-name="矩形 7165" width="356.833" height="94.736" fill="#fff"/>
    </clipPath>
    <clipPath id="clip-path-2">
      <path id="路径_53108" data-name="路径 53108" d="M9,38.172A29.2,29.2,0,1,0,38.195,8.977,29.2,29.2,0,0,0,9,38.172" transform="translate(-9 -8.977)" fill="#fff"/>
    </clipPath>
  </defs>
  <g id="组_7816" data-name="组 7816" transform="translate(0 0)">
    <g id="组_7810" data-name="组 7810" transform="translate(0 0)">
      <g id="组_7809" data-name="组 7809" clip-path="url(#clip-path)">
        <path id="路径_53058" data-name="路径 53058" d="M55.143,41.906a1.386,1.386,0,0,1,1.312-.638,9.927,9.927,0,0,0,3.535-.915c1.353-.44,2.714-.846,4.072-1.264,2.033-.63,4.058-1.292,6.107-1.87a1.5,1.5,0,0,0,1.139-1.633c.055-1.276.1-2.554.1-3.832a2.542,2.542,0,0,0-.3-.818c-.212.174-.513.3-.618.529a5.8,5.8,0,0,1-1.87,2.318c-1.11.814-1.916.781-2.685-.4-.267-.408-.418-.886-.654-1.314a2.727,2.727,0,0,0-.426-.468,5.439,5.439,0,0,0-.4.406,18.453,18.453,0,0,1-1.817,2.215,2.907,2.907,0,0,1-3.608-.26c-.333-.335-.7-.636-1.038-.963a4.6,4.6,0,0,1-.353-.434,3.188,3.188,0,0,1,.487-.269q2.91-1.018,5.829-2.019c.487-.168.553-.442.543-.955a11.179,11.179,0,0,1,.313-2.5c.034-.155.511-.374.713-.317a3.49,3.49,0,0,1,2.386,1.7c.317.634.69,1.24,1,1.878.23.485.491.543.955.287A2.982,2.982,0,0,0,71.434,27.4c-.022-1.567.194-3.136.275-4.706a17.706,17.706,0,0,0-.038-1.936.786.786,0,0,1,.987-.856A3.856,3.856,0,0,1,75.289,21.7c.226.446.523.507.945.1a8.713,8.713,0,0,0,1.851-2.6,12.855,12.855,0,0,0,.854-2.459.594.594,0,0,0-.771-.686A12.723,12.723,0,0,0,75.8,16.9c-1.3.632-2.574,1.339-3.838,2.051a2.183,2.183,0,0,0-.674.709c-.535.808-1.03,1.639-1.561,2.451-.063.1-.25.113-.5.218.042-.38.087-.638.093-.9a6.044,6.044,0,0,0-.052-.686c-.214.087-.438.164-.644.267s-.416.258-.63.374c-1.482.781-2.756.277-3.586-1.23-.075-.137-.172-.262-.323-.495,1.064-.252,2.1-.483,3.121-.743a14.625,14.625,0,0,0,1.9-.583.761.761,0,0,0,.262-.652c-.269-1.748-.533-3.5-.888-5.231-.323-1.573-.765-3.121-1.143-4.682-.143-.586.065-.824.638-.684A8.927,8.927,0,0,1,72.084,8.9a2.556,2.556,0,0,1,.7.973c.7,1.993,1.088,3.994-.048,5.988a4.168,4.168,0,0,0-.279,1.062l.218.133c1.173-.422,2.344-.848,3.519-1.264.8-.285,1.6-.6,2.425-.818a.959.959,0,0,0,.8-.915c.155-1.268.353-2.534.509-3.8a22.6,22.6,0,0,1,1.411-5.029c.159-.434.371-.612.919-.418,1.333.47,2.09,1.589,3.029,2.5a1.049,1.049,0,0,1,.295.735c-.048.678.386.836.89.969a1.212,1.212,0,0,1,.5.166c1.29,1.2,2.982,1.407,4.555,1.942.4.133.684.888.814,1.409a.973.973,0,0,1-.808,1.161,10.436,10.436,0,0,1-2.861.275,13.145,13.145,0,0,0-4.064.329A1.743,1.743,0,0,0,83.3,15.344a21.26,21.26,0,0,1-3.208,4.565,29.617,29.617,0,0,1-3.816,3.281c-.311.242-.281.923-.406,1.4l.218.162a2.474,2.474,0,0,0,.8-.329,21.2,21.2,0,0,1,5.579-3.65A9.048,9.048,0,0,1,86.1,19.7c1.29-.032,1.843.567,1.839,1.87,0,.553.4.551.763.446.9-.26,1.8-.541,2.685-.854a1.229,1.229,0,0,1,1.545.959,2.237,2.237,0,0,1-2.29,2.439c-1.276.089-2.556.133-3.828.271a1.394,1.394,0,0,0-.856.557c-1.341,1.924-3.317,3.109-5.118,4.5-.648.5-1.318.973-2,1.431a5.418,5.418,0,0,1-.945.468c-.7.293-.779.535-.341,1.151a2.619,2.619,0,0,1,.355.493c.39,1.007.816.907,1.793.521,1.48-.586,2.97-1.161,4.4-1.849a26.808,26.808,0,0,0,2.814-1.71,1.236,1.236,0,0,1,1.849.329,1.537,1.537,0,0,1,.02,1.189,2.032,2.032,0,0,1-1.185,1.2q-2.723.945-5.4,2.015a6.552,6.552,0,0,0-1.585,1,.74.74,0,0,0,.016.721,6.383,6.383,0,0,0,1.486,1,3.822,3.822,0,0,1,1.829,1.892,1.828,1.828,0,0,1-.7,1.882,8.233,8.233,0,0,1-1.7.957c-1.9.711-3.82,1.363-5.74,2.021a3.144,3.144,0,0,1-.862.123c-.874.046-1.256.394-1.3,1.278-.091,1.7-.085,3.418-.267,5.112a37.99,37.99,0,0,1-.864,5,7.254,7.254,0,0,1-1.189,2.166c-.139.208-.553.23-.985.39-.109-.921-.256-1.668-.275-2.417-.038-1.623-.05-3.249.008-4.868a20.845,20.845,0,0,1,.372-2.316c.117-.773.244-1.549.3-2.326.036-.517-.4-.773-.9-.644q-1.4.348-2.806.664c-.424.095-.695-.113-.622-.537.093-.547.307-1.074.426-1.619.153-.695.755-.735,1.262-.947A23.134,23.134,0,0,0,70.5,42.556a1.266,1.266,0,0,0,.5-.848,24.844,24.844,0,0,0,.147-2.485.9.9,0,0,0-.168-.583c-.063-.069-.361.024-.523.1a32.516,32.516,0,0,0-4.611,3.045c-1.1.8-2.32,1.425-3.477,2.144-.339.21-.628.5-.971.707a5.654,5.654,0,0,1-3.234.886.667.667,0,0,1-.412-.206A11,11,0,0,1,55.3,42.235a.747.747,0,0,0-.157-.194ZM75.908,31.647a2.867,2.867,0,0,0,.947-.313c1.456-1.278,2.889-2.584,4.311-3.9a13.546,13.546,0,0,0,1.278-1.379.765.765,0,0,0,.077-.6c-.02-.077-.351-.147-.5-.1-1.522.468-3.063.894-4.545,1.466-1.121.432-2.279.947-2.4,2.423-.006.085-.077.164-.1.248-.262,1.018-.521,2.037-.783,3.055-.079.3-.026.489.345.448a1.55,1.55,0,0,0,1.377-1.343m-1.73,11.086a3.238,3.238,0,0,0,.446-.093c1.129-.408,2.259-.812,3.382-1.238.642-.242,1.278-.509,1.9-.8.127-.061.281-.337.24-.436-.325-.777-.676-1.545-1.072-2.286-.048-.089-.456-.083-.63.008-.856.452-1.706.917-2.524,1.433-1.024.648-2.164,1.2-2.261,2.679-.03.47-.073.761.521.733m4.095-17.923a2.663,2.663,0,0,0,.691.03c1.379-.353,2.744-.761,4.131-1.082a1.442,1.442,0,0,0,1.224-1.448c.024-.307.093-.783-.065-.894a1.343,1.343,0,0,0-.987-.093c-1.845.454-3.172,1.785-4.664,2.833-.147.1-.188.363-.329.654m-4.6,13.382c.16.355.23.723.349.739a1.227,1.227,0,0,0,.775-.208c.567-.384,1.08-.85,1.65-1.23.44-.295.953-.483,1.391-.779.147-.1.285-.47.214-.579a1.321,1.321,0,0,0-.648-.428c-.113-.042-.3.079-.436.149-.86.436-1.746.832-2.56,1.341-.329.206-.5.664-.735,1m.293-3.36c-.026.892.168,1.044.852.824.466-.151.917-.349,1.377-.519,1.044-.382,1.407-.39.676-1.547-.119-.188-.151-.448-.3-.592a.584.584,0,0,0-.533-.1,21.107,21.107,0,0,0-1.724,1.391,1.872,1.872,0,0,0-.345.547m5.124.378c.367.111.608.262.82.228a1.187,1.187,0,0,0,.61-.392,2.209,2.209,0,0,0,.283-.594,3.336,3.336,0,0,0-.6.022,2.04,2.04,0,0,0-.62.226c-.139.079-.232.234-.489.509" transform="translate(56.191 4.821)" fill="#fff"/>
        <path id="路径_53059" data-name="路径 53059" d="M119.867,4.439c.581.43,1.187.834,1.74,1.3a2.165,2.165,0,0,1,.254,3.2c-1.014,1.324-1.987,2.679-2.964,4.03a3.923,3.923,0,0,0-.317.707l.127.212a16.24,16.24,0,0,0,1.648-.481c1.419-.579,2.819-1.213,4.234-1.8a3.982,3.982,0,0,1,3.024.61,1.232,1.232,0,0,1-.182,1.648c-1.547,1.769-3.1,3.537-4.585,5.354a34.68,34.68,0,0,1-4.046,4.852c-.349.3-.547.551.133.832a3.188,3.188,0,0,1,1.1,1.143.7.7,0,0,1-.143.642c-.7.709-1.431,1.4-2.187,2.055a14.127,14.127,0,0,0-2.722,3.555c-.048.081-.026.206-.048.452.367-.115.66-.182.933-.3,1.333-.563,2.659-1.141,3.99-1.708.543-.232,1.088-.454,1.635-.676a.416.416,0,0,1,.25-.05,19.75,19.75,0,0,1,2.259.864c.547.279.44.9.228,1.324a20.881,20.881,0,0,1-1.389,2.3c-.446.666-.993,1.266-1.419,1.942-.753,1.2-1.145,1.353-2.556,1.175a4.744,4.744,0,0,0-1.474.353,16.566,16.566,0,0,1-1.94.406c-.363.04-.545.113-.684.476-.769,2.007-1.573,4-2.364,6-.382.971-.767,1.94-1.131,2.917a.7.7,0,0,0,.022.541.507.507,0,0,0,.481.032c1.486-1,2.974-1.991,4.422-3.037a.982.982,0,0,0,.242-1.219c-.295-.832-.485-1.7-.686-2.433a4.845,4.845,0,0,0,.192-1.07c-.059-1.062.311-1.478,1.373-1.625,1.543-.212,3.077-.481,4.609-.747.89-.153,1.561.014,1.831.507a2.054,2.054,0,0,1-.414,2.037c-.82.884-1.647,1.763-2.471,2.643-.474.5-.438.644.113,1.106a11.5,11.5,0,0,1,1.847,1.716,2.382,2.382,0,0,1,.178,2.449c-.256.586-.856.6-1.417.711a1.846,1.846,0,0,0-1,.662c-.277.363-.573.662-.987.5a1.751,1.751,0,0,1-.888-.773c-.479-1.007-.864-2.059-1.266-3.1-.2-.533-.5-.483-.872-.194-.989.769-1.987,1.528-2.966,2.31a6.181,6.181,0,0,0-.567.658q-1.569,1.684-3.148,3.356a.875.875,0,0,1-.39.262,3.055,3.055,0,0,1-1.452.194c-.232-.077-.327-.793-.339-1.226a7.938,7.938,0,0,1,.186-1.811,3.3,3.3,0,0,1,.479-.822q.578-1.005,1.143-2.021c.04-.073.008-.184.038-.264.594-1.611,1.236-3.208,1.779-4.838.428-1.288.715-2.623,1.112-3.921a4.794,4.794,0,0,1,.624-1.09c.119-.188.307-.329.422-.517a1.314,1.314,0,0,1,1.7-.594c1.742.507,2.118.345,3.194-1.03.511-.65,1.1-1.236,1.607-1.888.345-.446.61-.957,1.016-1.605a5.178,5.178,0,0,0-3.251.864A11.321,11.321,0,0,1,114,34.205a1.134,1.134,0,0,0-.575.412c-1.2,1.6-2.382,3.212-3.582,4.811-1.492,1.989-3.014,3.957-4.49,5.956-1.054,1.431-2.023,2.924-3.1,4.339a4.462,4.462,0,0,1-1.581,1.436c-.483.214-1.177-.048-1.864-.107.192-.652.365-1.135.472-1.633a14.181,14.181,0,0,1,3.079-6.243q1.817-2.141,3.794-4.147a19.627,19.627,0,0,1,2.6-2.189,9.777,9.777,0,0,0,2.548-2.55c.707-1.056,1.629-1.962,2.4-2.976,1-1.312,1.958-2.663,2.917-4.01a1.8,1.8,0,0,0,.168-.557l-.123-.2a3.012,3.012,0,0,0-.989.424,19,19,0,0,1-4.23,3.067,3.151,3.151,0,0,1-.945.339c-.7.135-1.179-.414-1.355-1.062-.3-1.119.428-1.72,1.024-2.344a7.689,7.689,0,0,0,1.425-2.32c.438-1,.951-1.973,1.381-2.976a5.366,5.366,0,0,0,.22-1.155,3.944,3.944,0,0,0-.983.541c-.594.583-1.3,1.092-1.167,2.142.063.489-1.044.911-1.5.648-.232-.133-.466-.258-.864-.479a11.518,11.518,0,0,1,1.05-1.433,20.619,20.619,0,0,1,2.1-1.864,10.6,10.6,0,0,1,1.934-1.2,1.461,1.461,0,0,0,.894-1.66c-.456.115-.9.218-1.341.339-.638.172-1.272.359-1.91.535-.561.155-.959.4-.943,1.1a3.072,3.072,0,0,1-1.3,2.348.819.819,0,0,1-1.343-.3,5.949,5.949,0,0,1-.559-1.357c-.133-.47-.287-.7-.846-.537a3.655,3.655,0,0,1-1.2,0c-.624-.044-.826.153-.6.729a10.683,10.683,0,0,0,2.164,3.281,3.765,3.765,0,0,1,.84,3.111.766.766,0,0,1-.208.412c-.456.452-2.485.7-2.976.258a3.09,3.09,0,0,1-1.04-1.5A9.675,9.675,0,0,1,103.5,23.2c.04-.573.121-1.143.176-1.716s.069-1.157.149-1.73c.05-.369.291-.489.7-.557a15.627,15.627,0,0,0,2.907-.757c.275-.1.487-.684.519-1.064.1-1.175.081-2.36.139-3.541a1.158,1.158,0,0,1,.238-.62,1.443,1.443,0,0,1,.836.3,2.455,2.455,0,0,1,.513,1.005c.212.773.38,1.563.525,2.352.091.485.337.713.791.521q2.241-.948,4.45-1.964a1.2,1.2,0,0,0,.555-.557c.931-2.128,1.9-4.242,2.714-6.416a36.2,36.2,0,0,0,1.022-4.016Zm1.514,9.843c-.313.115-.832.323-1.363.495-1.654.529-3.194,1.169-4.034,2.877-.3.612-.525,1.088.04,1.621.442.418.3.808-.03,1.23-.495.626-.955,1.28-1.411,1.934a1.086,1.086,0,0,0-.081.418c.139,0,.319.05.41-.016a27.165,27.165,0,0,0,2.516-1.971c1.143-1.088,2.207-2.261,3.271-3.428A14.786,14.786,0,0,0,122.34,15.4c.367-.588-.036-1.129-.959-1.121m-20.2,33.606c.806-.961,1.575-1.793,2.243-2.7.858-1.165,1.641-2.386,2.439-3.594a5.509,5.509,0,0,0,.515-1.007.468.468,0,0,0-.137-.384c-.038-.042-.24.036-.341.1a.994.994,0,0,0-.218.254c-1.381,1.8-2.79,3.578-4.129,5.409a1.657,1.657,0,0,0-.372,1.92m18.086-5.177a2.968,2.968,0,0,0,.682-.236,5.15,5.15,0,0,0,.577-.555c-.25-.052-.5-.119-.749-.151a.944.944,0,0,0-.464.032,3.731,3.731,0,0,0-.555.361c.176.188.349.378.509.549" transform="translate(100.691 4.524)" fill="#fff"/>
        <path id="路径_53060" data-name="路径 53060" d="M95.971,47.739c-.515-.7-.9-.454-1.28.081a3.155,3.155,0,0,1-.529.44c-.075-.731-.137-1.3-.188-1.872-.065-.733-.293-.876-.955-.549a1.892,1.892,0,0,1-1.54.262.911.911,0,0,1-.741-1.193,3.2,3.2,0,0,1,1.224-1.96,6.028,6.028,0,0,0,.909-1.161c.226-.331.081-.5-.3-.5-.351,0-.7,0-1.191,0,.151-.527.279-.981.416-1.436.089-.3.222-.583.285-.886a1.544,1.544,0,0,1,.8-1.26,12,12,0,0,1,1.444-.717,1.163,1.163,0,0,0,.511-.42c.84-1.244,1.658-2.5,2.483-3.755a3.128,3.128,0,0,0,.343-.487,3.447,3.447,0,0,0,.145-.634c-.224-.02-.513-.137-.66-.04A16.907,16.907,0,0,0,94.58,33.5a10.305,10.305,0,0,0-2.364,2.9,2.241,2.241,0,0,1-3.049,1.01,2.75,2.75,0,0,1-.812-.951c-.3-.446-.636-.525-1.054-.182a7.2,7.2,0,0,1-3.945,1.567c-1.322.137-1.769.751-1.73,2.4.026,1.038.347,2.065.438,3.105a20.058,20.058,0,0,1,.04,3,1.036,1.036,0,0,1-.83,1.094,1.761,1.761,0,0,1-1.888-.553c-.913-1.211-.632-2.439-.19-3.695s.911-2.514,1.326-3.782a3.084,3.084,0,0,1,1.839-2.2,21.7,21.7,0,0,0,3.265-1.73c.315-.19,1.064-.416.337-1.171.678-.228,1.306-.422,1.922-.65a9.443,9.443,0,0,0,3.6-2.5,7.571,7.571,0,0,0,1.5-3.305c.258-.882.044-1.189-.87-1.123a25.189,25.189,0,0,1-5.966-.575.766.766,0,0,1-.321-.1c-.2-.145-.376-.319-.559-.481.206-.21.4-.579.624-.6a18.254,18.254,0,0,0,5.114-1.738c.9-.363,1.765-.822,2.667-1.183a1.008,1.008,0,0,0,.67-.909,27.817,27.817,0,0,0,.523-4.674c-.115-2.465.511-4.926-.059-7.388A15.579,15.579,0,0,1,94.654,6.6a10.507,10.507,0,0,1,1.672.476A6.3,6.3,0,0,1,100,10.759a3.4,3.4,0,0,1,.115,1.643c-.426,2.057-.945,4.095-1.415,6.144a1.6,1.6,0,0,0,.061.507,1.438,1.438,0,0,0,.487-.079c.45-.254.886-.535,1.314-.824a.514.514,0,0,0,.222-.315c.05-.446.065-.9.1-1.5a11.53,11.53,0,0,1,2.526.559,2.187,2.187,0,0,1,.909,1.375c.283,1.167-.277,1.8-1.361,2.235-2.178.866-4.383,1.664-5.4,4.171a23.49,23.49,0,0,1-2.281,3.481,5.137,5.137,0,0,0-.4,1.127,4.023,4.023,0,0,0,.967-.273c1.452-.83,2.875-1.71,4.325-2.544,1.7-.979,3.426-1.928,5.138-2.9a3.713,3.713,0,0,0,.551-.388,2.247,2.247,0,0,1,2.964.1,2.3,2.3,0,0,1,.341,2.275c-.25,1.092-.648,2.152-.852,3.251-.416,2.247-.634,4.537-1.143,6.762a48.764,48.764,0,0,0-.846,6.715,18.55,18.55,0,0,0,.224,2.609,5.537,5.537,0,0,1-.1,1.425c-.145.723-.406,1.423-.555,2.146a1.634,1.634,0,0,1-2.489,1.1,6.448,6.448,0,0,1-1.4-1.123c-.884-.783-1.736-1.6-2.631-2.374a2.393,2.393,0,0,1-.864-1.121,3.269,3.269,0,0,0-.937-1.1.886.886,0,0,0-.472.351c-.115.355-.089.757-.184,1.121-.214.808-.466,1.605-.7,2.407Zm9.459-22.974-.608.353c-1.567.9-3.14,1.8-4.7,2.714-1.137.666-2.292,1.308-3.382,2.043-2.063,1.393-4.091,2.839-6.118,4.28a2.48,2.48,0,0,0-.462.63c.287.05.575.121.866.143a.677.677,0,0,0,.374-.139c1.123-.755,2.235-1.526,3.364-2.271q2.093-1.381,4.212-2.726a.712.712,0,0,1,.454-.091c.727.111,1.45.252,2.176.374.515.087.547.5.418.82-.141.355-.408.832-.713.917a5.066,5.066,0,0,0-2.037,1.339,22.628,22.628,0,0,0-2.267,2.388c-.456.555-.264.909.436,1.1,1.238.341,1.456.911.737,1.962a2.234,2.234,0,0,1-.365.365c-.349.315-.725.606-1.038.951a.579.579,0,0,0-.059.543.587.587,0,0,0,.5.21c.347-.069.668-.252,1.012-.343.214-.057.559-.121.65-.016a.98.98,0,0,1,.222.755c-.121.495-.382.953-.541,1.44-.061.178-.081.489.022.579a9.279,9.279,0,0,0,4.022,2.459c.828.188,1.092-.089,1.125-.949a49.629,49.629,0,0,1,.662-8.452c.248-1.193.222-2.441.45-3.64.315-1.67.81-3.307,1.112-4.979a3.537,3.537,0,0,0-.525-2.76" transform="translate(80.281 6.73)" fill="#fff"/>
        <path id="路径_53061" data-name="路径 53061" d="M142.447,36.315l2.506-1.28a28.813,28.813,0,0,0,5.334-3.517c.493-.408,1.066-.715,1.571-1.11a1.184,1.184,0,0,0,.4-.638c.458-2.286.937-4.571,1.3-6.871a14.789,14.789,0,0,0-.044-2.568c0-.1.057-.21.063-.317.238-2.855.483-5.706.682-8.563a2.792,2.792,0,0,0-.349-1.032.685.685,0,0,0-.155-.218c-1.048-1.076-.787-2.386,1-2.5.426-.028.84-.295,1.27-.335a1.745,1.745,0,0,1,1.9,1.835,28.6,28.6,0,0,1-.682,5.595c-.248,1.66-.388,3.337-.7,4.983-.325,1.71-.834,3.384-1.2,5.086-.264,1.217-.426,2.457-.634,3.685l.216.186a17.972,17.972,0,0,0,1.66-.838c1.018-.646,2.013-1.331,2.992-2.031a7.292,7.292,0,0,0,1.205-1.064c.176-.2.361-.642.262-.8a1.536,1.536,0,0,0-.87-.594c-.418-.1-.888-.024-.858-.785.678-.036,1.359-.077,2.037-.1,1.157-.048,2.322-.018,3.467-.155.654-.079,1.171.057,1.423.592a1.667,1.667,0,0,1,.03,1.308,2.322,2.322,0,0,1-1.135,1.06,16.46,16.46,0,0,0-4.438,2.726,13.163,13.163,0,0,1-1.92,1.018q-1.638.878-3.273,1.773a2.212,2.212,0,0,0-.291.238,3.6,3.6,0,0,1,2.057,2.106,17.821,17.821,0,0,0,1.276,1.718,22.785,22.785,0,0,0,3.037,3.606,12.254,12.254,0,0,0,2.154,1.559c.434.295.9.551,1.349.82,1.337.789,2.655,1.617,4.026,2.342a13.384,13.384,0,0,0,1.979.632.8.8,0,0,1,.47.367.551.551,0,0,1-.252.479c-1.058.448-2.128.866-3.2,1.274a4.558,4.558,0,0,1-1.02.275c-1.108.147-2.223.3-3.337.384-.682.05-.919-.571-1.183-1.038-1.157-2.017-2.275-4.05-3.416-6.073-.569-1.005-1.135-2.015-1.736-3-.713-1.165-1.427-2.33-2.209-3.45-.388-.561-.684-1.08-.285-1.773-.682-.032-.991.24-1.078.787-.087.531-.158,1.066-.271,1.591-.121.543-.264,1.08-.426,1.613-.3,1-.6,2-.945,2.99-.365,1.026-.785,2.033-1.191,3.043-.592,1.476-1.193,2.948-1.793,4.42a3.689,3.689,0,0,1-2.34,2.239,8.21,8.21,0,0,1-2.712.123,23.17,23.17,0,0,1-2.728-.392,1.055,1.055,0,0,1-.523-.357c-.03-.036.117-.339.24-.394a11.768,11.768,0,0,1,2.275-.935,7.02,7.02,0,0,0,4.058-2.877,13.28,13.28,0,0,0,1.811-3.1c.775-1.924,1.379-3.919,2.023-5.893.071-.21-.079-.489-.125-.737-.214.087-.493.115-.64.267-.814.834-1.581,1.712-2.388,2.55s-1.645,1.73-2.859,1.7a7.479,7.479,0,0,1-2.463-.745c-.188-.077-.24-.5-.4-.88" transform="translate(143.593 7.496)" fill="#fff"/>
        <path id="路径_53062" data-name="路径 53062" d="M166.67,30.715c.426-.1.86-.168,1.274-.3,1.571-.519,3.131-1.07,4.7-1.593,1.413-.472,2.835-.921,4.25-1.389a10.814,10.814,0,0,0,1.371-.531.515.515,0,0,0,.194-.472,14.486,14.486,0,0,0-.779-1.627.468.468,0,0,0-.43-.141c-1.11.386-2.237.741-3.305,1.226a20.432,20.432,0,0,0-2.193,1.335c-.127.079-.262.145-.513.281a3.752,3.752,0,0,1,2.382-2.372c.925-.382,1.821-.832,2.707-1.29a.667.667,0,0,0,.212-1.108,3.877,3.877,0,0,1-.682-2.97c.04-.275.055-.549.081-.828l-.178-.077a2.877,2.877,0,0,0-.46.569c-.535,1.23-1.106,2.445-1.543,3.707a4.308,4.308,0,0,1-4.05,3.02,1.464,1.464,0,0,1,.067-.43c.275-.565.6-1.108.844-1.686.091-.218.1-.66-.022-.743a3.535,3.535,0,0,0-1.189-.436c-.055-.012-.23.4-.3.63-.083.281-.1.575-.161.86a1.639,1.639,0,0,1-2.092,1.086c-.6-.248-.814-.089-.87.6-.065.8-.147,1.605-.242,2.4a.942.942,0,0,1-.86.945c-.543.055-.779-.281-1.038-.737-.448-.787-.109-1.538-.085-2.306a3.275,3.275,0,0,0,.024-.594c-.147-.955-.335-1.9-.462-2.857a2.933,2.933,0,0,1,.131-.826,3.282,3.282,0,0,1,1.026.515,3.215,3.215,0,0,1,.414,1.056c.131.353.267.7.408,1.07.814-.117.7-.771.67-1.205a9.176,9.176,0,0,0-1.567-4.864,5.759,5.759,0,0,1-.539-1.684c.051-.032.1-.067.149-.1.434.309.886.6,1.3.935a11.27,11.27,0,0,1,2.7,3.129c.091.157.426.339.543.285a3.024,3.024,0,0,1,1.872.034,6.263,6.263,0,0,0,1.716.022c.529-.061,1.781-2.294,1.627-2.98-.357.285-.664.539-.983.775-.971.717-1.141.63-2.049-.279.7-.414,1.4-.816,2.094-1.221.03-.079.061-.153.093-.23a4.329,4.329,0,0,1-2.841-2.994c.5.075.929.135,1.359.212a1.479,1.479,0,0,0,1.4-.365c.82-.824,1.668-1.619,2.463-2.463a17.282,17.282,0,0,0,3-3.941c.444-.872.436-1.151-.367-1.825a5.888,5.888,0,0,1,3.275.392c.81.464,1.005.979.414,1.726-.985,1.248-2.047,2.437-3.083,3.644-.757.882-1.53,1.752-2.275,2.649a1.57,1.57,0,0,0-.182.561c.046.04.095.079.143.117a5.819,5.819,0,0,0,1.024-.577,19.042,19.042,0,0,1,5.518-2.861c.9-.359,1.767-.785,2.679-1.092,1.143-.388,2.312-.709,3.481-1.01A2.326,2.326,0,0,1,190.9,10.9c.01.186-.162.394-.281.571-.571.852-1.139,1.706-1.73,2.542-.672.951-1.379,1.878-2.051,2.831-1.058,1.5-2.128,2.99-3.138,4.523-.753,1.137-1.423,2.332-2.128,3.5a1.067,1.067,0,0,0-.178.359,3.356,3.356,0,0,0,0,.569,2.3,2.3,0,0,0,.5-.038c1.2-.351,2.382-.727,3.58-1.07,1.3-.369,2.6-.767,3.919-1.042a5.534,5.534,0,0,1,1.866.055c.545.079.624.525.412,1.056-.416,1.046-1.331,1.547-2.114,2.241a15.7,15.7,0,0,1-5.55,2.936c-1.143.384-2.33.644-3.491.981-1.615.462-3.232.925-4.84,1.421a18.534,18.534,0,0,0-2.072.8,3.217,3.217,0,0,0-.676.565,2.548,2.548,0,0,0,.652.483,21.416,21.416,0,0,0,2.31.646c.555.119.65.5.684.935a3.755,3.755,0,0,1-.489,2.336,8.547,8.547,0,0,0-.472,1.187,9.979,9.979,0,0,0,1.549-.252c1.415-.483,2.808-1.03,4.222-1.52a3.385,3.385,0,0,1,1.252-.208c.192.012.535.363.519.535a1.313,1.313,0,0,1-.931,1.322c-1.585.46-3.16.951-4.735,1.444a8.534,8.534,0,0,0-1.813.67,1.568,1.568,0,0,0-.594,1.032,16.2,16.2,0,0,0,.606,7.4,2.693,2.693,0,0,1-1.476,3.206,2.13,2.13,0,0,1-2.326-.483,11.2,11.2,0,0,0-3.168-2.007c-.345-.182-.668-.408-1.022-.626,1.4,0,2.732.014,4.06,0,1.1-.014,1.072-.077.971-1.183-.164-1.757-.216-3.527-.329-5.29a5.839,5.839,0,0,0-.166-.82,3.889,3.889,0,0,0-.793.26c-1.26.743-2.485,1.549-3.763,2.257a2.884,2.884,0,0,1-3.352-.006c-.541-.394-1.2-.628-1.738-1.026a3.391,3.391,0,0,1-.63-.927c.3-.188.612-.545.913-.537a16.781,16.781,0,0,0,4.864-.941,37.438,37.438,0,0,1,3.895-.707c.711-.117,1.173-.4,1.27-1.211a16.791,16.791,0,0,1,.529-2.086c.158-.618-.048-.812-.691-.735-.684.085-1.373.143-2.061.176a1.126,1.126,0,0,1-1.226-1.442,11.874,11.874,0,0,1,.269-1.316.791.791,0,0,1,.418-.418c.559-.24,1.167-.38,1.7-.66,1.2-.624,2.348-1.361,3.566-1.95a23.559,23.559,0,0,1,2.574-.913,50.584,50.584,0,0,0,5.116-1.793,35.915,35.915,0,0,0,4.446-2.73c.25-.166.319-.608.472-.923-.075-.083-.147-.168-.22-.25a37,37,0,0,0-3.594,1.175c-1.078.468-2.041,1.193-3.089,1.742-.848.444-1.748.789-2.623,1.187a26.3,26.3,0,0,1-3.7,1.654,32.627,32.627,0,0,1-4.88.8,18.225,18.225,0,0,1-2.677.008,2,2,0,0,1-.614-.234c.014-.083.03-.166.044-.248m15.928-15-.129.012c.065.759.111,1.52.2,2.275a4.739,4.739,0,0,0,.256.836,4.113,4.113,0,0,0,.693-.559c.89-1.112,1.825-2.2,2.609-3.388a12.527,12.527,0,0,0,1.316-2.768c.283-.812-.222-1.276-1.014-1.007-1.224.418-2.411.941-3.64,1.337-.63.2-.624.535-.529,1.066.131.723.164,1.466.238,2.2m-4.246,7a18.74,18.74,0,0,0,2.094-1.654,1.813,1.813,0,0,0,.511-1.379,10.314,10.314,0,0,1-.052-3.667A2.826,2.826,0,0,0,180.628,15l-.275-.034c-.347.672-.676,1.351-1.046,2.011-.331.592-.707,1.159-1.064,1.736a6.08,6.08,0,0,0-.577.949c-.4,1.066.119,1.962.686,3.063m.424-7.943c-1.9.64-3,2.306-2.247,3.422.969-.686,2.433-2.915,2.247-3.422m2.247,7.533a17.487,17.487,0,0,0-1.629,1.066.8.8,0,0,0-.218.7.819.819,0,0,0,.557.493c.194.024.466-.2.624-.382a3.585,3.585,0,0,0,.6-.947,3.341,3.341,0,0,0,.071-.929" transform="translate(165.045 6.015)" fill="#fff"/>
        <path id="路径_53063" data-name="路径 53063" d="M167.577,21.285a3.111,3.111,0,0,1-.416.822,12.671,12.671,0,0,0-2.447,3.673,10.808,10.808,0,0,1-1.688,2.493,1.544,1.544,0,0,1-1.246.39.932.932,0,0,1-.755-1.106c.127-.975.2-1.958.317-2.936.176-1.458,1.25-2.263,2.308-3.043a8.525,8.525,0,0,0,2.084-2.027,12.033,12.033,0,0,1,2.195-2.31c-.47.846-.947,1.688-1.407,2.538a9.823,9.823,0,0,0-.618,1.27,1.878,1.878,0,0,0,.03.707,3.359,3.359,0,0,0,.775-.149,3.986,3.986,0,0,0,.676-.47c.065.048.127.1.192.149" transform="translate(164.075 17.57)" fill="#fff"/>
        <path id="路径_53064" data-name="路径 53064" d="M143.307,23.94c1.476,1.153,1.038,1.555-.168,2.9q-.942,1.048-1.827,2.14a2.181,2.181,0,0,0-.244.658c.139.057.21.113.26.1,1.369-.374,1.65.682,2.059,1.565a2.9,2.9,0,0,1,.186.5c.087.343.246.674-.392.695-.783.028-1.561.222-2.346.283a1.5,1.5,0,0,0-1.448,1.173c-.065.365.046.509.428.45.511-.079,1.024-.162,1.538-.19.719-.042.919.406.927,1.1.016,1.4-.715,1.886-1.948,1.977a.689.689,0,0,0-.432.16,2.194,2.194,0,0,0-.264.539c.186.083.394.269.553.234.646-.141,1.278-.349,1.916-.533.042-.012.083-.061.121-.055.472.063,1.117-.032,1.377.238.365.38.008.909-.323,1.3-.23.277-.41.594-.654.856a1.9,1.9,0,0,1-1.462.8,5.844,5.844,0,0,0-1.821.432.765.765,0,0,0-.371.567,28.165,28.165,0,0,0-.168,3,11.735,11.735,0,0,1-1.369,5.857c-1.129-.436-2.56-.26-3.259-1.367-.678-1.07-2.106-1.585-2.318-3.016,1.161.44,2.237.85,3.315,1.256.359.135.571,0,.612-.376.151-1.4.323-2.8.424-4.206.024-.343-.145-.979-.295-1a1.451,1.451,0,0,0-1.173.3c-.571.717-1.205.577-1.934.438-1.5-.287-2.007.089-2.29,1.611a13.976,13.976,0,0,0-.329,1.916,2.274,2.274,0,0,1-1.373,1.981,3.426,3.426,0,0,1-.989.43c-.713.129-1.1-.164-1.442-.886a5.773,5.773,0,0,1-.632-3.511c.05-.311-.182-.664-.345-1.2.5.26.864.476,1.25.642a1.473,1.473,0,0,0,.713.135,4.588,4.588,0,0,0,2.885-1.648c.242-.273.21-.791.283-1.2a5.341,5.341,0,0,0,.04-.654c1.989.258,3.4-1.056,5.064-1.579-.069-.907-.8-.9-1.339-1.024a.871.871,0,0,1-.743-1.07c.079-.967.367-1.2,1.363-1.217a2.71,2.71,0,0,0,.339-.006c.323-.038.787.157.761-.464a.872.872,0,0,0-.937-.911c-1,.127-2,.295-3,.414a4.582,4.582,0,0,1-.9-.071,5.21,5.21,0,0,1,.143-.878,2.359,2.359,0,0,1,1.789-1.73c.408-.085.489-.291.258-.682a13.718,13.718,0,0,1-1.048-2.078,1.606,1.606,0,0,1,.089-1.135c.3-.64.741-1.217,1.106-1.831a5.279,5.279,0,0,0,.266-.727c-.658.3-1.125.549-1.613.745-1.732.693-3.489,1.333-5.2,2.067a19.949,19.949,0,0,0-2.011,1.209,3.708,3.708,0,0,1-3.315.474,13.647,13.647,0,0,0-1.908-.519,2.663,2.663,0,0,1-1.559-1.209.663.663,0,0,1,.028-.642,4.5,4.5,0,0,1,1.494-.814c1.405-.311,2.839-.495,4.26-.737,1.191-.2,2.4-.347,3.568-.65,1.821-.468,3.616-1.046,5.421-1.587a.927.927,0,0,0,.745-1.1c-.117-1.03-.18-2.067-.285-3.1-.036-.347-.129-.691-.2-1.036l-.2-.059a3.452,3.452,0,0,0-.3.7,1.433,1.433,0,0,1-2.128.83,1.678,1.678,0,0,1-.075-2.5,1.811,1.811,0,0,1,.723-.254,3.743,3.743,0,0,1,.4-.02c1.557-.234,1.619-.378,1.127-1.884a23.082,23.082,0,0,1-.757-2.893,1.273,1.273,0,0,1,.367-1c.194-.176.636-.113.963-.093.262.018.519.184.779.192.539.016.6.353.628.769.095,1.427.2,2.855.3,4.282.038.539.044,1.08.1,1.615a1.632,1.632,0,0,0,.248.5c.161-.1.382-.153.474-.295a24.575,24.575,0,0,0,2.388-3.824,17.546,17.546,0,0,1,2.154-3.014c.957-1.423,1.742-2.96,2.6-4.446a13,13,0,0,1,.7-1.121.566.566,0,0,1,.426-.119A1.433,1.433,0,0,1,145.29,7.16a4.2,4.2,0,0,0-.095.872c.174,1.5-.624,2.54-1.559,3.564a14.953,14.953,0,0,0-3.279,6.152.505.505,0,0,0,.121.4.366.366,0,0,0,.349-.03c1.593-1.359,3.457-2.421,4.67-4.2.111-.166.186-.355.281-.533.289-.533.856-.763,1.286-.394a6.006,6.006,0,0,1,1.149,1.452c.085.141-.1.577-.289.723a10.89,10.89,0,0,1-1.274.725,21.134,21.134,0,0,0-3.384,2.227,14.208,14.208,0,0,1-2.718,1.563c-.474.252-1,1.331-.751,1.789a.811.811,0,0,0,.715.21c2.263-.551,4.531-1.1,6.772-1.732a23.848,23.848,0,0,0,3.127-1.215,3.239,3.239,0,0,1,3.265.067c.3.194.7,1.177.493,1.411a1.181,1.181,0,0,1-1.248.559,7.364,7.364,0,0,0-4.224.067,35.569,35.569,0,0,1-3.893.923c-.432.1-.84.313-1.264.454-.989.335-1.987.644-2.972.991-.545.194-1.058.493-1.609.662-.874.269-1.771.466-2.655.7-.5.133-.991.275-1.486.418a.426.426,0,0,0-.162.115,3.905,3.905,0,0,0-.293,2.6,4.7,4.7,0,0,0,.66,1.106c.256.25.725.258.676-.287a2.049,2.049,0,0,1,.88-1.839,12.063,12.063,0,0,1,5.286-2.629,10.429,10.429,0,0,1,1.44-.111m-2.835-10.981-.277-.085a1.771,1.771,0,0,0-.432.384c-1.009,1.791-2.021,3.586-2.99,5.4a4.793,4.793,0,0,0-.317,1.137c.446.287.767.483,1.076.691.614.416.939.293,1.038-.44a18.589,18.589,0,0,1,1.72-5.633,4.57,4.57,0,0,0,.182-1.452m.454,12.128a1.009,1.009,0,0,0-.269-.014,4.944,4.944,0,0,0-3.2,2.855,7.055,7.055,0,0,0-.563,1.27.809.809,0,0,0,.109.646,2.818,2.818,0,0,0,.666.495c.39-.592,1.389-.388,1.6-1.226.036-.141.178-.254.267-.382.622-.876,1.274-1.732,1.851-2.637.39-.61.19-.971-.46-1.007m-4.448-4.65a1.864,1.864,0,0,0-.757,1.815c0,.147.323.444.448.42a7.519,7.519,0,0,0,1.266-.452.592.592,0,0,0-.063-.242c-.285-.5-.577-1-.894-1.541" transform="translate(120.359 5.907)" fill="#fff"/>
        <path id="路径_53065" data-name="路径 53065" d="M135.318,27.261c-.016,1.379-.4,2.116-1.167,2.283a1.184,1.184,0,0,1-.83-.1,7.535,7.535,0,0,1-2.4-2.653c-.414-.745-.917-1.442-1.326-2.189a1.109,1.109,0,0,1-.038-.779.61.61,0,0,1,.519-.252,4.862,4.862,0,0,1,1.294.295,22.723,22.723,0,0,1,2.3,1.076,3.766,3.766,0,0,1,1.645,2.318" transform="translate(131.968 24.019)" fill="#fff"/>
        <path id="路径_53066" data-name="路径 53066" d="M84.114,36.267H86.89v4.074c.287-.246.436-.38.59-.5A2.169,2.169,0,0,1,89.7,39.3a1.589,1.589,0,0,1,1.183,1.456c.059,1.094.059,2.195.069,3.289.01,1.183,0,1.183.808,1.849H88.447c.838-.511.579-1.308.592-2.015.018-.9.01-1.8,0-2.707-.006-.678-.3-1.078-.8-1.106a1.44,1.44,0,0,0-1.328,1.115c-.022,1.215-.053,2.433.022,3.644.022.359.384.693.6,1.05H84.146a1.576,1.576,0,0,1,.315-.234.781.781,0,0,0,.575-.848q-.006-3.734,0-7.468a.727.727,0,0,0-.551-.8,1.866,1.866,0,0,1-.371-.256" transform="translate(85.713 36.957)" fill="#fff"/>
        <path id="路径_53067" data-name="路径 53067" d="M73,36.269h2.812v3.913a11.535,11.535,0,0,1,1.694-.919,1.744,1.744,0,0,1,2.3,1.579c.059.9.042,1.8.044,2.705.006,1.46,0,1.46.769,2.34H77.341c.846-.474.618-1.254.626-1.946.01-.923.008-1.843,0-2.766,0-.674-.3-1.082-.793-1.114a1.441,1.441,0,0,0-1.341,1.1c-.022,1.217-.052,2.437.022,3.648.022.359.38.7.59,1.058h-3.42a1.985,1.985,0,0,1,.355-.236.781.781,0,0,0,.581-.844q0-3.737,0-7.476a.72.72,0,0,0-.557-.789,2.268,2.268,0,0,1-.4-.254" transform="translate(74.392 36.959)" fill="#fff"/>
        <path id="路径_53068" data-name="路径 53068" d="M106.468,44.929c-.555-.264-1.054-.414-1.074-1.032-.02-.638.212-.9,1.593-1.73-.127-.079-.236-.153-.349-.216a2.073,2.073,0,0,1-1.316-2.368,2.315,2.315,0,0,1,1.96-1.781,5.11,5.11,0,0,1,2.316.123,12.37,12.37,0,0,0,2.007.164v.583c-.339.014-.666.028-1.044.046a1.157,1.157,0,0,0,.1.275c.907,1.205.248,2.94-1.7,3.232a9.118,9.118,0,0,1-.941.016,2.341,2.341,0,0,0-.515.083c-.4.107-.729.394-.634.779.05.206.495.412.781.444.816.093,1.646.057,2.461.147a1.562,1.562,0,0,1,1.522,1.238,1.693,1.693,0,0,1-1.072,1.892,6.339,6.339,0,0,1-4.533.186,1.514,1.514,0,0,1-.808-.763c-.23-.511.083-.927.7-1.139.145-.05.289-.1.537-.18m1.969.141v-.008c-.394,0-.787.018-1.177,0a.751.751,0,0,0-.864.693,1.107,1.107,0,0,0,.45.894,3.492,3.492,0,0,0,3.218-.05,1.184,1.184,0,0,0,.462-.9c.01-.424-.4-.6-.8-.622-.43-.026-.862-.006-1.294-.006m.81-4.961c-.087-.47-.149-.935-.262-1.385a.816.816,0,0,0-.856-.666.792.792,0,0,0-.828.761,12.494,12.494,0,0,0,.026,2.38c.032.262.448.588.747.672a.742.742,0,0,0,.907-.563c.119-.388.18-.793.267-1.2" transform="translate(107.151 38.435)" fill="#fff"/>
        <path id="路径_53069" data-name="路径 53069" d="M65.153,39.166c-.1-.182-.21-.359-.3-.547a3.062,3.062,0,0,0-2.467-2.09,1.557,1.557,0,0,0-1.769.937,1.5,1.5,0,0,0,.872,1.9c.824.444,1.686.822,2.522,1.25a2.9,2.9,0,0,1,1.4,3.955,3.011,3.011,0,0,1-2.756,1.6,10.078,10.078,0,0,1-2.154-.166c-.509-.077-1.012-.378-1.476.4V42.875c.052-.014.1-.028.155-.04.077.2.157.394.23.594a3.288,3.288,0,0,0,2.134,2.384,1.86,1.86,0,0,0,2.508-1.072,1.516,1.516,0,0,0-.882-1.934c-.636-.347-1.3-.646-1.94-.977a7.788,7.788,0,0,1-.862-.5,2.794,2.794,0,0,1,1.221-5.14,4.779,4.779,0,0,1,2.183.258c.438.125.955.46,1.242-.256,0-.012.327.059.329.095.018.943.014,1.886.014,2.829l-.206.052" transform="translate(60.149 36.83)" fill="#fff"/>
        <path id="路径_53070" data-name="路径 53070" d="M147.5,36.261h3.018l.145.18c-.095.022-.192.038-.283.069-.818.271-.965.485-.969,1.359-.008,1.668.006,3.335-.034,5-.052,2.106-1.123,3.18-3.234,3.184a8.765,8.765,0,0,1-2.364-.335,2.347,2.347,0,0,1-1.8-2.4c-.03-1.589-.018-3.178-.026-4.767,0-.937.2-1.983-1.3-2.126.044-.046.091-.091.135-.135h4.781c-.018.046-.024.1-.044.109-1.347.365-1.343.365-1.339,1.795.006,1.688,0,3.376.006,5.062.008,1.389.652,2.2,1.771,2.275,1.674.107,2.742-.573,2.839-2.023.129-1.934.115-3.879.113-5.817,0-.691-.339-1-1.028-1.163a1.643,1.643,0,0,1-.277-.091c-.028-.012-.04-.061-.109-.176" transform="translate(143.321 36.951)" fill="#fff"/>
        <path id="路径_53071" data-name="路径 53071" d="M102.568,46.038H99.784c1.324-.7,1.4-2.114,1.9-3.245.894-2.039,1.682-4.127,2.526-6.188a2.333,2.333,0,0,1,.359-.474,2.689,2.689,0,0,1,.351.489c1.05,2.463,2.082,4.934,3.134,7.4.325.759.557,1.6,1.417,2.025h-4.533c-.012-.038-.026-.077-.038-.113a2.415,2.415,0,0,1,.446-.149c.7-.1.856-.323.674-.977-.434-1.549-.434-1.549-2.037-1.549-.277,0-.551-.012-.826,0-.363.022-.927-.063-1.046.127a5.341,5.341,0,0,0-.65,1.732c-.1.454.371.523.7.642.151.057.311.091.466.137-.016.046-.034.095-.052.141m1.1-7.014-1.4,3.671h2.921c-.507-1.222-.979-2.364-1.52-3.671" transform="translate(101.681 36.819)" fill="#fff"/>
        <path id="路径_53072" data-name="路径 53072" d="M153.393,44.442H150.2c-.012-.061-.034-.125-.024-.131.66-.384.674-1.018.658-1.668-.024-1.038-.036-2.076-.067-3.111-.016-.515-.162-.949-.8-.941a1.432,1.432,0,0,0-1.248,1.068c-.022,1.294-.046,2.59.02,3.881.016.295.4.569.626.876h-3.325c1.014-.4.7-1.258.721-1.969.024-.981,0-1.962.008-2.942,0-.614.1-1.266-.85-1.423.046-.042.091-.087.137-.129h2.609c.016.279.032.547.055.943.17-.188.275-.3.38-.418a2.21,2.21,0,0,1,2.4-.638,1.879,1.879,0,0,1,1.207,1.958c.012.921-.032,1.845.014,2.764.034.654-.406,1.528.868,1.72-.067.055-.135.107-.2.16" transform="translate(148.699 38.431)" fill="#fff"/>
        <path id="路径_53073" data-name="路径 53073" d="M94.289,44.4c1.161-.6.838-1.553.854-2.382a24.016,24.016,0,0,0-.091-2.7c-.067-.711-.61-.951-1.236-.6a1.335,1.335,0,0,0-.806,1.306c.048,1.036.028,2.078.006,3.115-.012.517.073.931.65,1.078.024.008.028.1.05.2h-3.36a.6.6,0,0,1,0-.153c.824-.244.749-.919.749-1.555,0-1.04,0-2.078,0-3.115,0-.644.107-1.341-.741-1.658h2.617c.018.285.036.563.063.945.194-.216.315-.359.444-.493a2.2,2.2,0,0,1,2.368-.545,1.857,1.857,0,0,1,1.159,1.924c.006.981,0,1.96,0,2.94,0,.634-.224,1.375.822,1.565l-.127.121Z" transform="translate(92.072 38.432)" fill="#fff"/>
        <path id="路径_53074" data-name="路径 53074" d="M87.957,36.263v3.184l-.127.052a4.768,4.768,0,0,0-.317-.493,11.477,11.477,0,0,0-1.587-1.855,2.38,2.38,0,0,0-3.949,1.355,5.907,5.907,0,0,0-.3,1.605,15.52,15.52,0,0,0,.228,3.487,2.729,2.729,0,0,0,4.056,1.831,13.464,13.464,0,0,0,1.714-1.211.706.706,0,0,1,.5-.059,4.971,4.971,0,0,1-5.387,1.874,4.238,4.238,0,0,1-3.5-3.907c-.458-3.523,1.506-5.754,4.819-5.98a6.008,6.008,0,0,1,1.763.382c.3.075.592.206.894.277a.646.646,0,0,0,.84-.343,1.182,1.182,0,0,1,.232-.264l.119.067" transform="translate(80.729 36.83)" fill="#fff"/>
        <path id="路径_53075" data-name="路径 53075" d="M133.292,44.031l-2.625.319c-.028-.242-.052-.448-.075-.63a13.022,13.022,0,0,1-1.857.66,1.643,1.643,0,0,1-2.12-1.748c-.018-1.078-.024-2.156,0-3.234.014-.64-.034-1.219-.731-1.565h2.59v3.1c0,.648,0,1.294,0,1.94a.731.731,0,0,0,.791.816,1.2,1.2,0,0,0,1.363-1.286c0-1.058-.01-2.116.006-3.174.008-.586-.1-1.058-.785-1.167a1.864,1.864,0,0,1-.23-.067l.1-.168h2.764v3.584c0,.392.018.783-.006,1.175-.038.634.05,1.175.868,1.29l-.054.153" transform="translate(128.275 38.549)" fill="#fff"/>
        <path id="路径_53076" data-name="路径 53076" d="M121.2,37.823h2.752V38.8c0,1.294.014,2.588-.008,3.881-.01.61.095,1.1.846,1.183-.008.057-.016.111-.026.166-.858.107-1.718.216-2.615.329-.032-.222-.061-.428-.1-.737-.21.123-.384.218-.553.321a2.805,2.805,0,0,1-2.067.434,1.494,1.494,0,0,1-1.331-1.534c-.024-1.175-.014-2.352-.018-3.527,0-.89-.024-.935-.83-1.464h2.7v1.062c0,1.294-.006,2.586,0,3.881,0,.63.242.88.824.9.634.022,1.314-.416,1.322-.9.02-1.294.016-2.588,0-3.881a.739.739,0,0,0-.632-.8,1.15,1.15,0,0,1-.289-.155c.012-.046.022-.091.034-.135" transform="translate(119.477 38.543)" fill="#fff"/>
        <path id="路径_53077" data-name="路径 53077" d="M73.952,44.035l-2.623.315c-.026-.244-.048-.45-.067-.614a13.428,13.428,0,0,1-1.862.65,1.671,1.671,0,0,1-2.116-1.777c-.008-1.1-.022-2.195.006-3.291a1.368,1.368,0,0,0-.691-1.478h2.538v.947c0,1.292,0,2.586,0,3.879,0,.743.254,1.02.9,1.024A1.15,1.15,0,0,0,71.293,42.6c0-1.137-.014-2.273.006-3.408.012-.565-.079-1.018-.741-1.127-.055-.01-.1-.1-.22-.236h2.825v.856c0,1.351-.006,2.7,0,4.054,0,.755.095.872.763,1.133.008.052.014.107.022.162" transform="translate(67.867 38.551)" fill="#fff"/>
        <path id="路径_53078" data-name="路径 53078" d="M101.044,43.8c-.977,1.06-2.195,1.014-2.72.008-.68.236-1.339.523-2.025.686a1.474,1.474,0,0,1-1.744-.737,1.412,1.412,0,0,1,.606-1.89,17.086,17.086,0,0,1,2.592-1.2c.418-.162.7-.295.606-.8a4.064,4.064,0,0,1-.008-.588A1.236,1.236,0,0,0,96.5,38.2c-.42.216-.392.557-.194.9.228.394.349.838-.095,1.066a1.508,1.508,0,0,1-1.137.046.71.71,0,0,1-.258-1.066,2.773,2.773,0,0,1,.933-1.052,3.862,3.862,0,0,1,3.459.03,1.635,1.635,0,0,1,1,1.6q0,1.648,0,3.3c0,.759.061.818.834.791m-2.693-2.831c-1.217.2-1.9.959-1.827,1.912.036.47.21.8.725.818a1.191,1.191,0,0,0,1.1-.876c.022-.6.006-1.207.006-1.853" transform="translate(96.201 38.414)" fill="#fff"/>
        <path id="路径_53079" data-name="路径 53079" d="M139.792,43.83a1.528,1.528,0,0,1-2.661-.018c-.682.234-1.345.521-2.035.684a1.512,1.512,0,0,1-1.75-.733,1.453,1.453,0,0,1,.616-1.9,18.077,18.077,0,0,1,2.651-1.211c.408-.16.628-.329.563-.785-.038-.269,0-.551-.055-.818a1.238,1.238,0,0,0-1.815-.858c-.438.23-.349.553-.2.947a1.133,1.133,0,0,1,.018.9,1.24,1.24,0,0,1-.87.311.677.677,0,0,1-.717-.753,1.484,1.484,0,0,1,.844-1.438,3.928,3.928,0,0,1,3.772.04,1.685,1.685,0,0,1,.88,1.615c0,1.04,0,2.078,0,3.117,0,.84,0,.84.755.9m-2.625-2.863a2.074,2.074,0,0,0-1.868,1.512.972.972,0,0,0,.636,1.219,1.225,1.225,0,0,0,1.224-.878c.03-.6.008-1.205.008-1.853" transform="translate(135.744 38.415)" fill="#fff"/>
        <path id="路径_53080" data-name="路径 53080" d="M62.969,41.164a3.223,3.223,0,1,1,6.427.016c-.109,2.124-1.115,3.352-3.194,3.366-1.819.012-3.075-.89-3.232-3.382m4.448-.006c-.081-.7-.135-1.48-.273-2.243a.931.931,0,0,0-.951-.868.974.974,0,0,0-.979.856,11.207,11.207,0,0,0-.034,4.527.993.993,0,0,0,1.058.892c.648,0,.856-.452.943-.935.129-.7.157-1.429.236-2.229" transform="translate(64.166 38.42)" fill="#fff"/>
        <path id="路径_53081" data-name="路径 53081" d="M124.728,45.895h-3.41c.1-.125.143-.222.21-.246a.863.863,0,0,0,.555-.937c0-2.433.026-4.866-.024-7.3-.008-.384-.367-.759-.567-1.147h2.554V36.9c0,2.374-.008,4.749,0,7.123,0,.678-.246,1.474.678,1.87" transform="translate(123.624 36.958)" fill="#fff"/>
        <path id="路径_53082" data-name="路径 53082" d="M174.25,37.823h1.989c-.892.466-.927,1.405-1.234,2.162-.668,1.648-1.266,3.321-1.916,4.975a7.959,7.959,0,0,1-.7,1.417,1.643,1.643,0,0,1-2.108.648.986.986,0,0,1-.594-1.139.8.8,0,0,1,.959-.654c.481.024.577.382.668.759.036.151.119.384.216.4a.637.637,0,0,0,.458-.178,2.271,2.271,0,0,0,.551-2.447c-.749-1.761-1.494-3.523-2.277-5.268-.109-.242-.424-.394-.739-.668h3.616c-.769.63-.765.628-.382,1.6.323.814.636,1.633,1.018,2.615.236-.648.418-1.147.6-1.647.149-.422.295-.848.44-1.272.26-.761.168-.957-.565-1.308" transform="translate(172.75 38.543)" fill="#fff"/>
        <path id="路径_53083" data-name="路径 53083" d="M140.256,45.9h-3.523c1.252-.616.927-1.627.945-2.506.034-1.7.014-3.41.008-5.116,0-.743.145-1.555-.767-2h2.669v.61c0,2.334-.01,4.666.006,7,.006.717-.262,1.551.662,2.017" transform="translate(139.332 36.961)" fill="#fff"/>
        <path id="路径_53084" data-name="路径 53084" d="M157.836,40.873a2.707,2.707,0,0,0,1.034,2.661c1.005.468,1.728-.048,2.489-.717a1.081,1.081,0,0,1-.087.384,3.168,3.168,0,0,1-3.475,1.242,2.793,2.793,0,0,1-1.995-2.689,4.628,4.628,0,0,1,.448-2.51,2.876,2.876,0,0,1,2.887-1.5,2.8,2.8,0,0,1,2.231,3.127Zm-.18-.376c.7,0,1.23.014,1.752-.012.109,0,.3-.164.3-.246a5.076,5.076,0,0,0-.143-1.5,1.1,1.1,0,0,0-.781-.632,1.071,1.071,0,0,0-.812.586,9.56,9.56,0,0,0-.315,1.809" transform="translate(158.745 38.425)" fill="#fff"/>
        <path id="路径_53085" data-name="路径 53085" d="M133.938,44.416h-3.921l-.024-.1a1.623,1.623,0,0,1,.262-.149.771.771,0,0,0,.551-.808c0-1.45.038-2.9-.03-4.349-.016-.359-.384-.7-.588-1.048h2.457c.02.3.038.59.067,1.036.226-.24.376-.394.519-.549A1.715,1.715,0,0,1,135.1,37.8a1.041,1.041,0,0,1,.695,1.052c-.012.262-.25.691-.45.731a2.115,2.115,0,0,1-1.082-.206c-.287-.109-.341-.676-.832-.438a1.188,1.188,0,0,0-.66,1.155c-.012,1.018.01,2.037-.014,3.057-.012.6.166.991.828,1.04.085.006.164.1.351.228" transform="translate(132.464 38.427)" fill="#fff"/>
        <path id="路径_53086" data-name="路径 53086" d="M112.843,44.419h-3.969c-.04-.04-.083-.081-.125-.121,1.145-.222.917-1.046.921-1.761.006-1.058-.022-2.116.01-3.172a1.237,1.237,0,0,0-.783-1.4h2.6c.026.295.053.6.093,1.052a3.517,3.517,0,0,1,.452-.5,5.411,5.411,0,0,1,1.217-.769,1.11,1.11,0,0,1,1.405,1.082c-.022.271-.236.7-.436.743a2.058,2.058,0,0,1-1.08-.176c-.3-.109-.365-.717-.882-.442a1.25,1.25,0,0,0-.634,1.23c0,.979,0,1.958,0,2.938,0,.789.077.884.846,1.072a2.044,2.044,0,0,1,.367.222" transform="translate(110.815 38.417)" fill="#fff"/>
        <path id="路径_53087" data-name="路径 53087" d="M169.9,39.056a9.638,9.638,0,0,1,1.014.012c.1.012.2.166.291.254-.095.069-.188.186-.289.2-.307.024-.618.008-1.016.008v1.567c0,.979-.028,1.96.016,2.94.012.267.2.709.369.743.252.05.571-.176.846-.319.121-.063.2-.206.3-.313l.125.073a3.669,3.669,0,0,1-.2.412,2.15,2.15,0,0,1-2.275,1,1.273,1.273,0,0,1-1.141-1.345c-.01-1.353,0-2.705,0-4.06v-.64l-.828-.111c.921-1.02,1.769-1.962,2.619-2.9l.166.063v2.423Z" transform="translate(170.289 37.267)" fill="#fff"/>
        <path id="路径_53088" data-name="路径 53088" d="M73.4,36.652v2.407a9.69,9.69,0,0,1,.981.012c.113.012.214.147.321.228-.107.077-.206.21-.319.224-.289.03-.583.01-.983.01V40.3q0,1.793,0,3.588c0,.371-.061.787.408.935.442.139.684-.174.921-.474a1.768,1.768,0,0,1,.279-.224,1.944,1.944,0,0,1-1.688,1.516c-.987.083-1.545-.182-1.785-.876a2.049,2.049,0,0,1-.089-.63c-.008-1.294,0-2.588,0-3.883V39.6l-.824-.127c.915-1.012,1.773-1.958,2.629-2.9l.155.085" transform="translate(71.959 37.263)" fill="#fff"/>
        <path id="路径_53089" data-name="路径 53089" d="M126.178,39.528c0,1.645-.012,3.194.016,4.739a.716.716,0,0,0,.367.527.844.844,0,0,0,.642-.123,2.98,2.98,0,0,0,.543-.571,1.788,1.788,0,0,1-1.5,1.524c-1.244.166-2.092-.258-2.041-1.692.044-1.234.01-2.471.01-3.707v-.642c-.267-.034-.458-.059-.822-.1.921-1.022,1.771-1.965,2.621-2.909l.162.061v2.38c.359.016.686.01,1.007.057.109.016.2.164.3.252-.095.069-.184.19-.285.2-.309.026-.62.01-1.016.01" transform="translate(125.737 37.266)" fill="#fff"/>
        <path id="路径_53090" data-name="路径 53090" d="M159.106,37.93h2.584c.022.333.04.634.065.981a9.536,9.536,0,0,1,1.084-.947c.9-.565,1.928-.143,1.938.783a1,1,0,0,1-.343.787,1.979,1.979,0,0,1-.991-.026c-.095-.012-.166-.162-.262-.226-.212-.135-.541-.414-.628-.353-.285.194-.63.491-.678.791A17.857,17.857,0,0,0,161.749,42c-.01.315,0,.628,0,.943-.012.9.052.983.939,1.264.044.014.073.083.17.2h-3.776a.54.54,0,0,1-.008-.125c.848-.289.789-.989.783-1.676-.01-1.022-.008-2.041,0-3.061,0-.646-.016-1.27-.747-1.619" transform="translate(162.09 38.426)" fill="#fff"/>
        <path id="路径_53091" data-name="路径 53091" d="M119.83,43.194a3.163,3.163,0,0,1-2.031,1.264c-3.182.519-4.111-2.255-3.523-4.4a3.372,3.372,0,0,1,4.319-2.14A1.408,1.408,0,0,1,119.61,39.1a.83.83,0,0,1-.866,1.005c-.45.02-.711-.281-.745-.86,0-.059,0-.117,0-.176.006-.422.024-.862-.525-.971a.926.926,0,0,0-1.121.64,4.779,4.779,0,0,0,.262,4.131,1.815,1.815,0,0,0,2.754.424c.107-.089.218-.176.329-.262.044.057.091.111.135.166" transform="translate(116.279 38.438)" fill="#fff"/>
        <path id="路径_53092" data-name="路径 53092" d="M166.682,37.878v1.831l-.115.059c-.1-.162-.2-.321-.287-.489a1.869,1.869,0,0,0-1.486-1.2.91.91,0,0,0-1.022.517.841.841,0,0,0,.325,1.086c.365.26.769.464,1.151.7a9.984,9.984,0,0,1,1.076.707,1.761,1.761,0,0,1,.575,2.057,1.792,1.792,0,0,1-1.573,1.312,7.992,7.992,0,0,1-1.458-.006c-.507-.03-1.012-.107-1.583-.172V42.423l.129-.091a1.786,1.786,0,0,1,.277.4,2.017,2.017,0,0,0,1.688,1.52,1.1,1.1,0,0,0,1.276-.6c.258-.59-.079-.925-.525-1.2-.666-.41-1.375-.759-2-1.217a1.78,1.78,0,0,1-.638-2.288,2.185,2.185,0,0,1,2.322-1.2,5.663,5.663,0,0,0,.8.162c.327.02.658-.02,1.068-.038" transform="translate(165.372 38.433)" fill="#fff"/>
        <path id="路径_53093" data-name="路径 53093" d="M155.28,44.481c-.091-.182-.194-.359-.275-.545-.711-1.65-1.405-3.307-2.134-4.949a9.936,9.936,0,0,0-.707-1.159h3.348l.022.1c-.131.05-.307.067-.386.16-.137.166-.345.424-.3.565a21.745,21.745,0,0,0,1.318,3.133c.4-1.018.84-2.021,1.153-3.065.071-.232-.317-.6-.483-.894h1.742c-.763.374-.834,1.155-1.108,1.789-.62,1.433-1.193,2.887-1.789,4.331-.071.174-.153.343-.23.515l-.176.016" transform="translate(155.057 38.548)" fill="#fff"/>
        <path id="路径_53094" data-name="路径 53094" d="M153.272,44.29h-3.243l-.014-.091c.88-.374.739-1.145.737-1.866,0-1.018-.02-2.037,0-3.053.016-.608-.04-1.141-.723-1.444h2.641v.59q0,2.087,0,4.169c0,.616-.2,1.308.6,1.694" transform="translate(152.866 38.557)" fill="#fff"/>
        <path id="路径_53095" data-name="路径 53095" d="M165.132,37.821h2.623v1.46c0,1.155,0,2.31,0,3.465,0,.586-.186,1.264.8,1.417l-.141.133h-3.305c0-.048-.018-.117-.008-.121.751-.277.791-.892.779-1.559-.018-1.076-.02-2.152,0-3.228.012-.644-.048-1.221-.826-1.44.024-.042.05-.085.075-.127" transform="translate(168.194 38.541)" fill="#fff"/>
        <path id="路径_53096" data-name="路径 53096" d="M91.585,44.294H88.266c0-.065-.018-.133-.008-.137.753-.271.8-.878.789-1.551q-.036-1.644,0-3.289a1.342,1.342,0,0,0-.777-1.48h2.639v.888c0,1.391.01,2.78-.006,4.169-.006.567-.018,1.108.759,1.25-.026.048-.05.1-.077.149" transform="translate(89.932 38.557)" fill="#fff"/>
        <path id="路径_53097" data-name="路径 53097" d="M112,44.324c.967-.408.717-1.226.725-1.936.008-1.02,0-2.039,0-3.059,0-.9,0-.9-.7-1.528.5,0,1.01-.006,1.514,0,1.234.018,1.062-.17,1.074,1.048.01,1.058-.028,2.118.012,3.176.03.8-.319,1.726.8,2.3Z" transform="translate(114.127 38.517)" fill="#fff"/>
        <path id="路径_53098" data-name="路径 53098" d="M167.549,37.232a1.149,1.149,0,0,1-1.1,1.08,1.079,1.079,0,0,1-1.08-1.082,1.146,1.146,0,0,1,1.082-1.1,1.2,1.2,0,0,1,1.1,1.1" transform="translate(168.509 36.82)" fill="#fff"/>
        <path id="路径_53099" data-name="路径 53099" d="M88.543,37.234a1.162,1.162,0,0,1,1.082-1.1,1.2,1.2,0,0,1,1.1,1.1,1.144,1.144,0,0,1-1.094,1.084,1.1,1.1,0,0,1-1.09-1.078" transform="translate(90.226 36.82)" fill="#fff"/>
        <path id="路径_53100" data-name="路径 53100" d="M152.462,37.226a1.12,1.12,0,0,1-1.086,1.084,1.059,1.059,0,0,1-1.072-1.076,1.1,1.1,0,0,1,1.062-1.1,1.174,1.174,0,0,1,1.1,1.094" transform="translate(153.161 36.82)" fill="#fff"/>
        <path id="路径_53101" data-name="路径 53101" d="M114.4,37.234a1.05,1.05,0,0,1-1.078,1.078A1.026,1.026,0,0,1,112.3,37.2a1.064,1.064,0,0,1,1.038-1.064,1.089,1.089,0,0,1,1.068,1.1" transform="translate(114.43 36.819)" fill="#fff"/>
        <path id="路径_53102" data-name="路径 53102" d="M47.368,0h0A47.368,47.368,0,1,0,94.736,47.368,47.458,47.458,0,0,0,47.368,0m0,91.927a44.209,44.209,0,1,1,44.21-44.208,44.3,44.3,0,0,1-44.21,44.208" transform="translate(0 0.001)" fill="#fff"/>
      </g>
    </g>
    <g id="组_7812" data-name="组 7812" transform="translate(18.171 18.125)">
      <g id="组_7811" data-name="组 7811" clip-path="url(#clip-path-2)">
        <path id="路径_53103" data-name="路径 53103" d="M75.037,38.682H62.312a2.135,2.135,0,0,1-1.73-.888L42.521,12.088a2.168,2.168,0,0,0-3.523,0L20.944,37.79a2.141,2.141,0,0,1-1.734.892H6.484V37.677H19.21a1.122,1.122,0,0,0,.913-.47l18.054-25.7a3.174,3.174,0,0,1,5.165,0L61.4,37.21a1.123,1.123,0,0,0,.911.466H75.037Z" transform="translate(-11.564 -7.751)" fill="#fff"/>
        <path id="路径_53104" data-name="路径 53104" d="M61.156,39.514a2.741,2.741,0,0,1-2.237-1.161l-17.842-25.8a.472.472,0,0,0-.392-.2.478.478,0,0,0-.4.206l-17.836,25.8a2.7,2.7,0,0,1-2.243,1.165L6.558,39.5l0-1.005,13.651.018a1.763,1.763,0,0,0,1.419-.735l17.836-25.8a1.489,1.489,0,0,1,2.435,0L59.743,37.778a1.769,1.769,0,0,0,1.415.731l13.653-.018,0,1.005-13.653.018Z" transform="translate(-11.488 -6.568)" fill="#fff"/>
        <path id="路径_53105" data-name="路径 53105" d="M74.4,39.907l-14.68,0a2.742,2.742,0,0,1-2.237-1.161L40.548,14.229,23.614,38.74A2.742,2.742,0,0,1,21.373,39.9l-14.678,0,0-1.005,14.68,0a1.733,1.733,0,0,0,1.415-.733L40.134,13.058a.521.521,0,0,1,.828,0l17.345,25.11a1.739,1.739,0,0,0,1.413.729l14.68,0Z" transform="translate(-11.351 -5.027)" fill="#fff"/>
        <path id="路径_53106" data-name="路径 53106" d="M73.743,39.936l-15.6,0a2.742,2.742,0,0,1-2.237-1.161L40.327,16.162,24.75,38.765a2.739,2.739,0,0,1-2.241,1.167l-15.6,0V38.931l15.6-.006a1.74,1.74,0,0,0,1.417-.733l15.986-23.2a.521.521,0,0,1,.828,0L56.731,38.2a1.734,1.734,0,0,0,1.413.729l15.6.006Z" transform="translate(-11.13 -3.057)" fill="#fff"/>
        <path id="路径_53107" data-name="路径 53107" d="M57.26,40.287a4.387,4.387,0,0,1-3.626-1.916L40.016,17.922,26.4,38.367a4.391,4.391,0,0,1-3.63,1.92l-15.558,0V39.279l15.558,0a3.391,3.391,0,0,0,2.8-1.478L39.6,16.735a.52.52,0,0,1,.836,0L54.468,37.81a3.384,3.384,0,0,0,2.792,1.472l15.56,0v1.005Z" transform="translate(-10.821 -1.286)" fill="#fff"/>
      </g>
    </g>
    <g id="组_7814" data-name="组 7814" transform="translate(0 0)">
      <g id="组_7813" data-name="组 7813" clip-path="url(#clip-path)">
        <path id="路径_53109" data-name="路径 53109" d="M29.635,26.149a4.1,4.1,0,1,0-4.1,4.107,4.105,4.105,0,0,0,4.1-4.107" transform="translate(21.835 22.464)" fill="#fff"/>
        <path id="路径_53110" data-name="路径 53110" d="M27.735,40.493h-1.09A10.8,10.8,0,0,0,25.225,37.5a7.973,7.973,0,0,0-3.36-2.77s-3.844-1.411-3.186-4.8a4.15,4.15,0,0,1,8.159-.055Z" transform="translate(18.957 27.072)" fill="#fff"/>
        <path id="路径_53111" data-name="路径 53111" d="M23.795,40.493h1.09A10.784,10.784,0,0,1,26.307,37.5a7.961,7.961,0,0,1,3.358-2.77s3.844-1.411,3.186-4.8a4.15,4.15,0,0,0-8.159-.055Z" transform="translate(24.247 27.072)" fill="#fff"/>
        <path id="路径_53112" data-name="路径 53112" d="M73.264,24.963h0c.095.03.2.059.293.087a2.568,2.568,0,0,1,.517-.319.1.1,0,0,0,.091.1,1.115,1.115,0,0,1-.01.168c.079.063.155.145.236.208.133.008.384-.046.525-.046.052.05.018.2.032.244-.006.006-.388.006-.436.022a.176.176,0,0,0-.093.3c-.01.042-.083.067-.093.109-.036.091.01.115.065.168.264.24.773.4.941.793.018.244-.095.224-.19.3-.063.036-.162.036-.25-.087a12.118,12.118,0,0,1-1.631-1.53c-.075,0-.129-.006-.2,0a3.19,3.19,0,0,1,.168.333,10.742,10.742,0,0,0,1.086,1.314c.519.355,1.112.713,1.631,1.07a3.3,3.3,0,0,1,.4.442c.077.17.006.19-.137.135a1.585,1.585,0,0,1-.462-.234c-.454-.367-1.044-.793-1.543-1.238-.535-.476-1.086-.981-1.429-1-.264-.034-.361.059-.406.258-.034.224.046.4.172.442.067.057.057.153.055.244,0,.139-.065.2-.208.168-.121.02-.16-.008-.279.008a.8.8,0,0,1-.371-.176c-.16-.19-.307-.408-.454-.61-.016-.018-.059-.038-.075-.059a3,3,0,0,0-.842-.87c-.289.977.232,1.516,1.074,1.775.127.123.109.192-.016.287a2.611,2.611,0,0,0-.858.5c-.123.258-.224.208-.3.113a10.077,10.077,0,0,0-.507-.951c-.006.446-.026.959,0,1.341a.469.469,0,0,0,.781.283,4.941,4.941,0,0,1,1.417-1c.1-.048.155-.026.208.093a6.321,6.321,0,0,0,1.159,1.108c.3.061.351-.069.287-.287a2.524,2.524,0,0,0-.753-.725,1.583,1.583,0,0,1-.291-.244c-.081-.145-.036-.178.1-.147a1.511,1.511,0,0,0,.321-.012.582.582,0,0,0,.349-.19,1.99,1.99,0,0,0-.1-.646c-.077-.18.042-.224.208-.113a5.328,5.328,0,0,1,.81.894,4.8,4.8,0,0,0,2.265,1.565c.365,0,.41-.214.323-.493-.365-.442-.806-.852-1.207-1.284a4.776,4.776,0,0,1,1.092-.014c.412.067.824.073,1.221.1a3.15,3.15,0,0,0,1.131.123c.416-.093.39-.285.277-.5a8.23,8.23,0,0,0-2.193-1.734c-.067-.065-.034-.129.131-.151a4.922,4.922,0,0,0,1.575.43.266.266,0,0,0,.335-.21,1.112,1.112,0,0,0-.216-.65c-.091-.083-.164-.044-.18.028,0,.075,0,.139,0,.214-.317-.036-.622-.057-.937-.091-.351-.095-.684-.17-1.038-.264a1.061,1.061,0,0,1-.214-.39c-.194-.127-.147-.065-.18-.089-.1.1-.174.228-.26.333,0,.04,0,.085,0,.123.02.057.046.113.067.168,0,.04,0,.087,0,.129a2.062,2.062,0,0,1-.545-.188,1.007,1.007,0,0,0,.335.555c-.184-.016-.382-.048-.569-.065-.055-.05-.095-.1-.149-.151a2.792,2.792,0,0,0-.246-.543c0-.044.01-.081.01-.127a2.392,2.392,0,0,0,.335-1.082c-.044.008-.1.018-.149.024a1.551,1.551,0,0,0-.46.67c-.085.085-.174.089-.258.145-.042.052-.073.093-.115.149-.085.079-.218.018-.139-.085.036-.063.087-.119.131-.194a1.051,1.051,0,0,0,.1-.371c-.077-.028-.157-.038-.18-.016a1.478,1.478,0,0,1-.186.275,9.174,9.174,0,0,0-.85.481c-.1.079-.206.24-.038.339m2.766,2.352h0a1.969,1.969,0,0,0-.38-.022c-.03-.044-.063-.089-.093-.131.03-.034.061-.067.091-.1.012-.036.028-.079.042-.115l.188.008a2.025,2.025,0,0,1,.206.222.444.444,0,0,1-.055.137M78,26.457h0a1.4,1.4,0,0,1,.549.331c.028.042.055.1.081.145.065.071.151.151.216.22.071.141-.044.153-.123.2-.363.032-1.084-.071-1.605-.095-.095,0-.125-.061-.057-.143.071-.05.159-.1.232-.145l.139-.095c.081-.024.162-.048.242-.075A1.909,1.909,0,0,0,78,26.457m-1.486-.644h0c.063-.03.127-.061.192-.089s.133-.038.153-.012a1.011,1.011,0,0,1,.388.228c.04.032.077.091.057.123s-.093.014-.107.024-.186-.03-.2-.022a.481.481,0,0,1-.157-.006c-.034-.028-.063-.057-.095-.087a1.636,1.636,0,0,1-.271-.028c.016-.044.028-.089.044-.131m-.2.444h0c.172.012.376.04.565.069.109-.026.2-.067.307-.095a.528.528,0,0,1,.186.028.125.125,0,0,1,.077.127c-.018.032-.1.16-.194.141-.063.018-.115.036-.176.055-.1.1-.2.2-.307.295a.416.416,0,0,1-.337.1.82.82,0,0,1-.527-.246c-.03,0-.065-.1-.018-.141a2.872,2.872,0,0,0,.176-.236c.083-.042.166-.059.248-.1m-.242-.525c.085.026.143.048.16.091-.018.061-.095.083-.188.123-.065.057-.141.162-.206.216a.619.619,0,0,0-.131.273.432.432,0,0,1-.2.137,2.036,2.036,0,0,0-.545-.448c-.1.014-.182-.044-.244-.19a9.884,9.884,0,0,1,1.353-.2m-4.771-.091c.424.032.846.042,1.272.038.093-.024.17-.063.1-.21-.022-.093.04-.143.151-.139.232-.014.466-.016.7-.032a.606.606,0,0,0-.17-.192c-.26-.036-.563-.04-.739-.087A3.024,3.024,0,0,0,72,24.733a1.653,1.653,0,0,0-1.153.365.992.992,0,0,0-.014.21c.036.048.071.095.1.141.127.061.25.131.374.192M62.549,17.62A6.866,6.866,0,0,0,64.8,16.2a7.6,7.6,0,0,1-.547,3.093,1.357,1.357,0,0,0,1.074,1.1c.218.17.644.028.367-.212a1.458,1.458,0,0,1-.166-.345c-.147-.351-.133-.709-.315-1.072a2.9,2.9,0,0,1-.1-1.361,1.978,1.978,0,0,0,.032-1.048,9.515,9.515,0,0,0,2.342.474c.24.046.339-.095.25-.357a2.019,2.019,0,0,0-.993-.828c.04.113.081.23.123.343.036.238-.087.3-.365.236a2.881,2.881,0,0,0-.872-.095c-.242,0-.289-.216.02-.371l2.625-1.975c.38-.333.376-.709-.125-1.007-.367-.137-.571-.1-.525.212a.614.614,0,0,1-.184.581,16.067,16.067,0,0,1-2.225,1.87.784.784,0,0,1-.82.283,7.018,7.018,0,0,1-1.314-.258c-.491-.26-.616.432-.23.664a2.1,2.1,0,0,0,.666,0,4.6,4.6,0,0,1,.8,0l-.236.145L62.9,16.9c-.747.347-1.177.095-1.987-.238-.143.232.151.416.394.707.291.485.664.533,1.238.252m-11.823-6.4a3.016,3.016,0,0,0,.113,1.4c.212.252.479.281.668.016a1.113,1.113,0,0,0-.115-.884.945.945,0,0,0-.666-.531m-1.05-1.05h0l-.321-.113a2.5,2.5,0,0,0-.933.02,1.345,1.345,0,0,1-.351.45c-.042-.014-.093.048-.17.073s-.139,0-.206.012a1.667,1.667,0,0,1-.157-.2c0-.052-.024-.129-.024-.184-.042-.073-.067-.129-.111-.2-.046.012-.091.042-.139.059a5.043,5.043,0,0,0-.242.721c-.034.472.075.678.442.727a.59.59,0,0,0,.483-.194,1.167,1.167,0,0,0,.222-.517.352.352,0,0,1,.315-.271.642.642,0,0,1,.426,0c.032.089-.014.192.321.212.061,0,.143-.042.216-.014.012.071.081.192.093.262a.722.722,0,0,1-.032.285c-.1.127-.21.3-.313.424a.335.335,0,0,1-.335.182c-.091,0-.1-.014-.155-.079-.022-.063-.026-.133-.046-.2a.553.553,0,0,0-.3-.26c.046.125.109.267.151.4a4.216,4.216,0,0,0,.23.656c.121.178.311.24.63.109a1.455,1.455,0,0,0,.279-.279,7.958,7.958,0,0,0,.678-1.411c.087.063.21.133.3.2.123,0,.23.026.351.032.077-.057.125-.113.2-.17.1-.018.184-.044.285-.065-.026-.1-.036-.23-.063-.333-.244-.018-.489-.024-.733-.042.046-.065.077-.109.119-.174.2-.022.414-.04.614-.059a.289.289,0,0,0,.036-.359c-.1-.079-.2-.186-.3-.264-.01-.093-.028-.184-.036-.273.269.036.517.067.783.1,0-.206.018-.371.014-.577.04-.069-.034-.1.006-.172.1-.079.295-.21.394-.289a.607.607,0,0,0,.317-.3c.109-.125.081-.25-.164-.355a4.352,4.352,0,0,0-1.3.063.311.311,0,0,0-.184.059c-.1.085-.208.214-.3.3-.135.095-.164.052-.184-.008a.78.78,0,0,1,.012-.47.527.527,0,0,1,.519-.295,16.927,16.927,0,0,1,3.012.367,3.333,3.333,0,0,0,.777.311c.262.008.412-.145.291-.4-.283-.333-1.312-.436-2.673-.426-.3-.034-.307-.164-.234-.319.05-.061.1-.119.153-.18a4.521,4.521,0,0,1,1.127-.057c.271-.063.559-.107.826-.172.065-.083.111-.188.176-.273-.055-.109-.089-.22-.145-.327-.1.006-.2.032-.3.038-.186.113-.392.212-.579.325a1.467,1.467,0,0,1-.581.063c-.212-.014-.238-.109-.111-.244a6.068,6.068,0,0,1,1.464-.955.669.669,0,0,0,.3-.487c-.04-.174-.089-.388-.164-.4-.151.081-.307.174-.462.252-.248.147-.452.489-.737.624-.141.061-.295.087-.436.149a4.262,4.262,0,0,0-1.171.953c-.006-.141-.036-.289-.044-.43.1-.139.2-.283.291-.424,0-.083,0-.143,0-.226.057-.071.111-.16.164-.228,0-.083-.02-.174-.024-.256a1.227,1.227,0,0,0-.392-.38c-.135-.038-.212.008-.232.123-.1.275.1.686.089.947a.163.163,0,0,1-.184.149,1.614,1.614,0,0,0-.769.01c-.153.059-.186.147-.089.267a.781.781,0,0,0,.414.226.173.173,0,0,1,.18.157,3.127,3.127,0,0,1,0,.4c0,.166-.059.273-.232.244a7.632,7.632,0,0,1-1.613-.046c-.157-.059-.287-.109-.414-.168a5.342,5.342,0,0,1-1.127-.371.283.283,0,0,0-.347.1.8.8,0,0,0-.05.347,1.882,1.882,0,0,0,.44.5c.048.044.048.113.1.157a1.319,1.319,0,0,0,.339.1c.143-.042.285-.089.422-.131l1.694-.02c.119,0,.184.02.1.24-.087.042-.182.091-.267.131s-.129.1-.143.281c-.012.061.121.513.1.573a1.287,1.287,0,0,0-.729.186c-.111.147-.115.232.091.307.244.055.5.048.7.1a.445.445,0,0,1,.182.155c-.006.065.022.194-.012.258-.121-.018-.339-.083-.476-.109-.111-.034-.228-.016-.267.109.01.063-.012.131,0,.194a1.349,1.349,0,0,1,.345.242c.065.212-.024.2-.117.22m1.165-1.765h0a1.139,1.139,0,0,1,.719-.493.957.957,0,0,1,.468.038c.127.034.147.085.073.168a6.888,6.888,0,0,1-1.032.493c-.055.061-.1.042-.192-.016-.111-.085-.083-.149-.036-.19m.892-2.088h0a.256.256,0,0,1,.151-.129,3.98,3.98,0,0,1,.834-.781c.075-.014.228,0,.26.071-.016.055-.04.143-.059.2a3.851,3.851,0,0,0-.668.878c-.018.069-.055.164-.075.232a2.422,2.422,0,0,1-.363.01c-.061-.04-.036-.026-.087-.1-.024-.16-.036-.337.006-.38m-.258.3c.052.046.107.087.16.131a.745.745,0,0,1,.044.24c.006.107-.042.117-.087.129h-.141c-.081-.024-.089-.079-.1-.137,0-.1,0-.208-.006-.313.044-.016.087-.032.127-.05M31.241,8.385h0a.419.419,0,0,0,.577-.571c-.166-.289-.525-.329-.727-.575-.125-.087-.046-.174.1-.232.077-.057.121-.073.174-.046a2.244,2.244,0,0,1,.216.192c.052.01.083.008.135.018.034.071.1.141.137.212.1.139.287.19.382-.067.014-.17.026-.367.038-.537.016-.081.05-.206.1-.232a.253.253,0,0,1,.123.212c-.032.618-.222,1.157-.2,1.5.046.1.131.3.285.339a.556.556,0,0,0,.309-.2,6.158,6.158,0,0,0,.446-.731c.178-.293.222-.21.186.117A5.294,5.294,0,0,1,33.116,9.4a4.2,4.2,0,0,0-.769,1.694,4.328,4.328,0,0,0-.065,1.813c.065.2.2.232.418.1.063-.079.071-.155.131-.234a9,9,0,0,0,.273-1.436A8.126,8.126,0,0,1,33.813,8.7c.22-.289.388-.545.61-.608.119-.1.22-.117.208.127a2.659,2.659,0,0,1-.353.925c-.109.008-.216.016-.325.026-.2.024-.178.164-.194.325.024,1.028.065,2.027.141,3.01a1,1,0,0,0,.129.238c.123.073.188.1.252.036a7.14,7.14,0,0,0,.82-1.864c.077-.111.151-.162.23-.067.139.162.293.357.432.517.1,0,.188,0,.289-.006a1.491,1.491,0,0,0,.339-.808.283.283,0,0,0-.232-.325c-.153-.026-.307-.028-.458-.052-.141-.061-.127-.127-.1-.2a1.153,1.153,0,0,0,.17-.287,1.649,1.649,0,0,0-.01-.717.259.259,0,0,0-.376-.059,5.2,5.2,0,0,0-.781.658c-.087.055-.119.192-.077.416a2.829,2.829,0,0,0,.369.392.24.24,0,0,1-.006.295,3.036,3.036,0,0,1-.468.808c-.046.081-.113.077-.16-.012a12.87,12.87,0,0,1-.048-1.847,7.89,7.89,0,0,1,.961-.749,3.191,3.191,0,0,0,.05-1.355c-.295-.2-.719.077-1.062.509a3.782,3.782,0,0,1-.315.43c-.091.075-.119.121-.149-.065a3.709,3.709,0,0,1,.434-1.228.808.808,0,0,0,.01-.212c-.012-.052-.01-.129-.048-.133-.036.036-.147.123-.208.109-.109-.014-.18-.071-.129-.182A7.666,7.666,0,0,0,34.3,4.093c-.026-.182-.149-.262-.351-.178a2.044,2.044,0,0,0-.991.9c-.133.178-.135.109-.139-.008a8.991,8.991,0,0,1,.23-1.034c-.014-.337-.063-.361-.143-.456-.1-.04-.218-.095-.323-.133-.206-.109-.323.077-.246.311a9.32,9.32,0,0,1,.107,1.987,2.528,2.528,0,0,1-.658.7.087.087,0,0,1-.1,0,.589.589,0,0,0-.343-.442c-.081-.038-.256-.123-.3-.091-.008.046-.125.275-.065.388a1.458,1.458,0,0,1,.264.44c0,.069.02.065-.129.291-.075.048-.135.087-.208.135a.365.365,0,0,0-.178.5,2.963,2.963,0,0,0,.513.977m3.994,1.29h0l.18-.024V9.77l-.048.168-.131.087-.087-.216ZM33.417,4.818h0c.089-.055.153-.014.164.083a4.288,4.288,0,0,1-.61,1.9c-.081.093-.139.077-.157-.024-.063-.38-.03-.862-.081-1.258a2.682,2.682,0,0,1,.684-.7m-.656,2.411h0a2.2,2.2,0,0,0,.672-.117c.02.038.036.077.063.117-.21.246-.43.5-.642.743-.026.034-.034.069-.059.1-.032.008-.057,0-.061-.02a2.875,2.875,0,0,1,.026-.822m-.44-1.278c.091-.006.166.006.137.121a1.2,1.2,0,0,1-.3.529c-.085.133-.109.371-.232.565-.024,0-.044-.036-.067-.067s-.03-.048-.024-.065c-.008-.2-.008-.43-.016-.63a1.487,1.487,0,0,1,.5-.454M19.062,13.019h0a.337.337,0,0,1,.022.349,4.309,4.309,0,0,1-.812,1.331c-.065.25.063.3.325.226a8.161,8.161,0,0,0,1.016-.783.554.554,0,0,1,.212.337,1.773,1.773,0,0,1,.111.527,4.805,4.805,0,0,1-.119.577c-.042.151-.168.2-.267.325-.059.095-.038.151.081.246a1.751,1.751,0,0,1-.422,1.054,12.488,12.488,0,0,0,.479,1.314c.267.406.545.5.791.258.172-.289.026-.5-.208-.7a1.755,1.755,0,0,1-.763-.911c-.073-.069.131-.2.252-.317a8.341,8.341,0,0,1,.414-.733c.093.008.184.034.277.04.275-.085.321-.363.262-.707a1.518,1.518,0,0,1,.244-1.183,3.468,3.468,0,0,1,.206.975c.028.216-.117.3-.115.4a.926.926,0,0,0,.093.682,1.174,1.174,0,0,0,.309-.085c.079.087.061.311.038.6.044.238.1.416.361.382a.6.6,0,0,0,.295-.476c.121.145.238.3.359.448.022-.071.036-.157.063-.228.085-.038.2-.046.19-.26-.162-.174-.331-.5-.273-.65a4.692,4.692,0,0,0,1.429.107c.2-.02.428-.055.472-.2s-.1-.466-.238-.654a11.01,11.01,0,0,1-1.977-2.932c-.115-.135-.418-1.2-1.012-.656-.325.717-.586,1.71-.945,2.461a4.7,4.7,0,0,1-.238-1.619,3.178,3.178,0,0,1,.4-.771c.125-.422-.186-.553-.509-.549a.467.467,0,0,0-.365.4.514.514,0,0,1,.073.519c-.095.182-.123.077-.176.063-.485-1.409-.955-1.664-1.413-1.631-.337.044-.777-.016-.7.44.1.083.206.168.309.252a9.318,9.318,0,0,1,1.472,1.738m2.2-.743c.115-.077.5.374.721.979.224.378.521.844.8,1.213a7.143,7.143,0,0,1,.691.959.237.237,0,0,1-.2.333c-.269-.006-.495.014-.761.008-.067-.04-.04-.315-.155-.41-.05-.026-.081-.042-.117-.03a1.175,1.175,0,0,0-.283.323c-.061.1-.121.085-.133.055.022-.23.057-.466.073-.7-.038-.081-.044-.083-.1-.115-.113.01-.271.034-.386.042-.006-.289-.026-.612-.032-.9a.735.735,0,0,1,.149-.1,1.006,1.006,0,0,0,.04-.378c0-.1-.123-.17-.271-.153a.833.833,0,0,0-.327.329,9.161,9.161,0,0,0-.541,1.807.319.319,0,0,1-.256.109c.5-1.916.89-3.317,1.1-3.376M7.229,27.18h0c.23.01.454-.269.717-.812.006-.351-.162-.41-.291-.529,0-.485.016-1.005.016-1.49.363.267.686.606.693.8a.145.145,0,0,1-.087.21c-.307.067-.432.234-.424.416.034.143.184.2.347.283a5.787,5.787,0,0,1,1.161.767c.137.3-.012.295-.321.258a1.4,1.4,0,0,0-.654.287c-.048.093-.016.26.452.533.038.448.014.925.032,1.3.05.1.186.111.335.014a.708.708,0,0,0,.307-.822,1,1,0,0,1-.242-.337c.012-.133.04-.1.071-.139.151-.018.273.006.426-.014a.22.22,0,0,0,.186-.254,1.111,1.111,0,0,0-.311-.7.267.267,0,0,1,.038-.2,2.875,2.875,0,0,1,.909.59,17.19,17.19,0,0,1-.323,2.667.873.873,0,0,0,.014.287c.075.147.325.151.626.077a.639.639,0,0,0,.287-.569c-.077-.769-.141-1.553-.216-2.322.18.123.416.21.583.351a6.625,6.625,0,0,0-.032.747c.109.206.273.309.4.273.2-.077.166-.535.295-.757.04.012.079.006.107.036a3.6,3.6,0,0,0,2.063.945c-.089-.606-1.11-1.1-2.041-1.656a.193.193,0,0,1-.065-.23,3.607,3.607,0,0,0,.1-1.658.336.336,0,0,0-.349-.264,1.364,1.364,0,0,0-.63.4.082.082,0,0,1-.139-.028c-.18-.414.168-1.383-.038-1.853-.117-.1-.333-.081-.361-.022a5.816,5.816,0,0,0-.192,1.971c0,.206-.166.246-.335.1a3.484,3.484,0,0,0-.448-1.71,1.039,1.039,0,0,1-.036-.765c.337-.577.311-.9.046-1.04a.549.549,0,0,0-.378.028c-.145.153-.032.458-.081.713a.7.7,0,0,0-.678.374,2.63,2.63,0,0,0,.1,1.791c.095.3-.083.264-.2.18a6.29,6.29,0,0,0-.349-1.357,6.457,6.457,0,0,0-.5-.751c-.095-.335.236-.83.422-1.2.095-.5-.188-.476-.267-.45-.44.172-.311.341-1.066.856-.684.135-.793.157-.894.242-.149.155.022.384.05.414a8.615,8.615,0,0,0,1.31.945,3.345,3.345,0,0,1-.133,1.333,1.461,1.461,0,0,0-1.064-.63,1.132,1.132,0,0,0-1.046.753,12.626,12.626,0,0,0,2.088.513c-.123.658-.137,1,0,1.1m4.216-1.2h0a.364.364,0,0,1,.4-.03.4.4,0,0,1,.17.291c-.022.317-.073.693-.107,1.036-.113-.069-.222-.141-.335-.21-.061-.157-.109-.317-.157-.474.014-.2.024-.408.034-.612m-.43-.521h0a.2.2,0,0,1,.081.026,1.683,1.683,0,0,1,.008.246.3.3,0,0,1-.093-.014.685.685,0,0,1-.034-.153.208.208,0,0,1,.038-.1M11,26.011h0c.052.061.1.121.157.184.01.267.018.549.03.816-.073-.055-.143-.123-.216-.178.01-.273.018-.547.028-.822m-.567.048h0l.293-.006a1.556,1.556,0,0,1,.014.612c-.01.04-.05.022-.081.018a.881.881,0,0,1-.226-.174ZM9.52,24.545h0c.065-.087.085-.069.129-.036.192.1.392.5.571,1.74.008.091-.036.153-.061.151a2.232,2.232,0,0,1-.628-.485.461.461,0,0,1-.115-.2,2.224,2.224,0,0,1,.1-1.169m-.658-.293h0c.02-.135.046-.279.069-.414.109-.1.22-.085.329.042a1.884,1.884,0,0,1-.109,1.211,1.675,1.675,0,0,1-.289-.84m-1.8-1.579a.249.249,0,0,1,.008-.143.886.886,0,0,1,.408-.016.209.209,0,0,1,.157.149,1.835,1.835,0,0,1,.012.4c-.044,0-.1.008-.149.014-.145-.131-.287-.269-.436-.4" transform="translate(5.237 3.211)" fill="#fff"/>
        <path id="路径_53113" data-name="路径 53113" d="M5.589,24.912c-.594.16-.87.481-.832.959a.9.9,0,0,0,.208.537H4.959a.7.7,0,0,0,.216.139.558.558,0,0,0,.246.032.807.807,0,0,0,.331-.091.624.624,0,0,0,.218-.2,2.469,2.469,0,0,0,.1-.291c.04-.133.081-.3.123-.5a3.9,3.9,0,0,1,.155-.489,1.137,1.137,0,0,1,.2-.339,1.232,1.232,0,0,1,1.312-.291,1.323,1.323,0,0,1,.434.271,1.445,1.445,0,0,1,.218.374,1.608,1.608,0,0,1,.113.483,1.331,1.331,0,0,1-.232.961,1.478,1.478,0,0,1-.917.485l-.012-.083-.01-.081a.691.691,0,0,1-.01-.079c0-.028-.006-.055-.01-.079l0-.018a1.242,1.242,0,0,1-.024-.143c-.008-.052-.014-.1-.022-.153a.924.924,0,0,0,.521-.281.66.66,0,0,0,.143-.5.746.746,0,0,0-.186-.479h.006a.561.561,0,0,0-.43-.147.4.4,0,0,0-.22.087.62.62,0,0,0-.16.21c-.026.063-.063.16-.1.293s-.085.3-.127.5a3.952,3.952,0,0,1-.17.521,1.382,1.382,0,0,1-.216.369,1.073,1.073,0,0,1-.341.228,1.59,1.59,0,0,1-.5.115,1.464,1.464,0,0,1-1.1-.359,1.177,1.177,0,0,1-.244-.4,1.864,1.864,0,0,1-.119-.541,1.673,1.673,0,0,1,.046-.588,1.306,1.306,0,0,1,.256-.485,1.6,1.6,0,0,1,.428-.341,2.329,2.329,0,0,1,.606-.222Z" transform="translate(4.217 24.752)" fill="#fff"/>
        <path id="路径_53114" data-name="路径 53114" d="M6.314,25.971a3.76,3.76,0,0,1,.509-.055,3.661,3.661,0,0,1,.476.018,2.962,2.962,0,0,1,.426.077,2.459,2.459,0,0,1,.363.127,1.777,1.777,0,0,1,.495.47,1.612,1.612,0,0,1,.26.648,1.628,1.628,0,0,1-.016.7,1.7,1.7,0,0,1-.3.61,2.52,2.52,0,0,1-.664.468,3.374,3.374,0,0,1-.939.307,3.468,3.468,0,0,1-1,.05,2.17,2.17,0,0,1-.763-.208,1.667,1.667,0,0,1-.448-2.443,2.219,2.219,0,0,1,.644-.466,3.531,3.531,0,0,1,.951-.3m.121.666q-1.545.282-1.359,1.3t1.73.743a2.15,2.15,0,0,0,1.108-.464.974.974,0,0,0-.279-1.536,2.152,2.152,0,0,0-1.2-.044" transform="translate(4.458 26.409)" fill="#fff"/>
        <path id="路径_53115" data-name="路径 53115" d="M8.741,27.617l.188.64-2.467.721a1.663,1.663,0,0,0-.769.41.684.684,0,0,0-.153.317.853.853,0,0,0,.03.4.805.805,0,0,0,.2.347.74.74,0,0,0,.295.186,1.237,1.237,0,0,0,.374.012,2.491,2.491,0,0,0,.487-.1l2.465-.721.188.642-2.36.688a4.093,4.093,0,0,1-.866.166,2.112,2.112,0,0,1-.646-.042,1.061,1.061,0,0,1-.474-.329,1.651,1.651,0,0,1-.3-.608,2.189,2.189,0,0,1-.1-.719,1.065,1.065,0,0,1,.186-.563,1.744,1.744,0,0,1,.5-.408,3.967,3.967,0,0,1,.846-.341Z" transform="translate(4.912 28.143)" fill="#fff"/>
        <path id="路径_53116" data-name="路径 53116" d="M5.433,31.86l3.384-1.353-.42-1.05.668-.269,1.09,2.728-.67.267-.42-1.052L5.683,32.484Z" transform="translate(5.536 29.744)" fill="#fff"/>
        <path id="路径_53117" data-name="路径 53117" d="M7.956,32.409,6.234,33.3l-.3-.592,3.879-2,.307.594-1.522.783.751,1.456,1.52-.785.3.594-3.879,2-.3-.594,1.72-.888Z" transform="translate(6.042 31.288)" fill="#fff"/>
        <path id="路径_53118" data-name="路径 53118" d="M11.677,33.994a1.32,1.32,0,0,1,.279.959l0,0a1.7,1.7,0,0,1-.442.951c-.044-.036-.087-.071-.127-.1s-.083-.061-.123-.093a.275.275,0,0,1-.042-.03l-.04-.03a1.461,1.461,0,0,0-.151-.113.823.823,0,0,0,.087-1.129q-.572-.781-1.827.141a2.362,2.362,0,0,0-.808.884.778.778,0,0,0,.107.806c.285.388.721.448,1.3.184l.024.095c.006.032.014.065.022.095a.182.182,0,0,0,.008.057l.02.055c.01.055.02.107.032.157s.024.1.036.155a1.99,1.99,0,0,1-1.092.178,1.309,1.309,0,0,1-.5-.178,1.436,1.436,0,0,1-.388-.363,1.613,1.613,0,0,1-.3-.666,1.446,1.446,0,0,1,.055-.713,2.261,2.261,0,0,1,.38-.656A3.654,3.654,0,0,1,8.867,34a3.476,3.476,0,0,1,.806-.446,2.7,2.7,0,0,1,.751-.182,1.65,1.65,0,0,1,.7.157,1.461,1.461,0,0,1,.551.462" transform="translate(7.877 34.009)" fill="#fff"/>
        <path id="路径_53119" data-name="路径 53119" d="M10.5,36.565l-1.44,1.3-.446-.495,3.243-2.924.446.5-1.27,1.145L12.127,37.3,13.4,36.156l.446.5L10.6,39.574l-.446-.5,1.438-1.3Z" transform="translate(8.778 35.099)" fill="#fff"/>
        <rect id="矩形_7166" data-name="矩形 7166" width="4.365" height="0.663" transform="translate(19.993 75.244) rotate(-45.956)" fill="#fff"/>
        <path id="路径_53120" data-name="路径 53120" d="M10.94,39.9l-.472-.4,2.81-3.337.525.442-.818,3.469a.146.146,0,0,0,.05.03l2.041-2.425.464.39-2.812,3.337-.571-.481.791-3.321-.026-.012-.028-.012Z" transform="translate(10.667 36.85)" fill="#fff"/>
        <path id="路径_53121" data-name="路径 53121" d="M13.122,40.165c-.059.044-.121.1-.188.155s-.127.113-.188.166-.093.075-.135.111-.087.073-.131.113a.2.2,0,0,0-.04.034.3.3,0,0,1-.04.034l-.557-.384c.048-.038.1-.077.147-.115l.147-.117,0,0,.063-.052a.49.49,0,0,0,.063-.05c.117-.095.236-.188.351-.281s.232-.19.347-.285q.615-.5,1.217-.979c.4-.323.812-.648,1.226-.975l.666.458c-.075.244-.151.491-.23.741s-.155.5-.236.751-.157.5-.234.747-.155.495-.234.739c-.046.139-.091.281-.133.42s-.087.283-.129.424l-.083.264c-.028.091-.059.182-.085.269l-.583-.4.309-.9Zm1.524.295.789-2.227-.044-.028c-.3.256-.6.511-.9.767s-.6.511-.9.767Z" transform="translate(12.067 38.258)" fill="#fff"/>
        <path id="路径_53122" data-name="路径 53122" d="M16.59,42.358c-.048.057-.1.121-.149.192s-.1.139-.149.2l-.109.137q-.051.067-.1.139a.146.146,0,0,0-.032.042.167.167,0,0,1-.032.04l-.626-.254c.038-.048.079-.1.119-.145s.081-.1.119-.145l0,0a.76.76,0,0,1,.05-.063.736.736,0,0,0,.048-.063c.1-.117.19-.234.285-.351s.186-.232.279-.351c.331-.41.658-.814.981-1.215s.656-.806.991-1.211l.749.3c-.022.256-.044.513-.069.773s-.046.521-.071.783-.048.523-.071.781-.048.517-.073.771c-.014.147-.028.293-.04.44l-.036.44c-.008.089-.016.182-.024.277s-.018.19-.026.281l-.656-.267.113-.943Zm1.553-.034.3-2.342-.05-.02c-.236.313-.474.628-.713.941s-.479.626-.715.941Z" transform="translate(15.682 40.063)" fill="#fff"/>
        <path id="路径_53123" data-name="路径 53123" d="M19.962,39.977a1.37,1.37,0,0,1,1.084,1.593c-.125-.01-.236-.016-.335-.024s-.208-.01-.327-.014a.926.926,0,0,0-.02-.333.852.852,0,0,0-.109-.258.938.938,0,0,0-.521-.329q-1.03-.306-1.462,1.153-.466,1.578.573,1.886a1.532,1.532,0,0,0,.549.061,1.123,1.123,0,0,0,.491-.164l-.006,0,.194-.656-.787-.234.176-.6,1.367.4-.487,1.641a2.414,2.414,0,0,1-.832.26,2.126,2.126,0,0,1-.854-.077,1.788,1.788,0,0,1-.678-.359,1.524,1.524,0,0,1-.414-.592,2.113,2.113,0,0,1-.121-.775,3.415,3.415,0,0,1,.149-.931,3.246,3.246,0,0,1,.39-.868,2.2,2.2,0,0,1,.557-.59,1.672,1.672,0,0,1,.678-.258,1.692,1.692,0,0,1,.745.061" transform="translate(17.773 40.659)" fill="#fff"/>
        <path id="路径_53124" data-name="路径 53124" d="M20.219,42.779l-.351,1.86-.652-.121.81-4.288,1.569.295a1.363,1.363,0,0,1,.876.5.961.961,0,0,1,.188.438A1.593,1.593,0,0,1,22.64,42a1.208,1.208,0,0,1-.436.781,1.039,1.039,0,0,1-.293.131,1.177,1.177,0,0,1-.359.038l-.012.065a.736.736,0,0,1,.153.1.476.476,0,0,1,.113.135,1.061,1.061,0,0,1,.067.186c.022.079.046.172.073.283.012.05.024.1.034.147a1.289,1.289,0,0,0,.038.145c.016.069.032.137.046.2l.042.2c.01.052.022.109.036.166s.026.115.04.168.026.111.04.172.028.119.042.174l-.751-.143-.111-.416-.1-.408q-.051-.206-.1-.406c-.046-.157-.089-.293-.129-.4a1.093,1.093,0,0,0-.111-.236v0a.892.892,0,0,0-.2-.16.771.771,0,0,0-.25-.091Zm.1-.555.713.135a1.135,1.135,0,0,0,.565,0,.581.581,0,0,0,.376-.5c.077-.412-.155-.668-.7-.771l-.713-.135Z" transform="translate(19.581 40.994)" fill="#fff"/>
        <path id="路径_53125" data-name="路径 53125" d="M22.153,40.583l-.523,4.333-.658-.081.523-4.331Z" transform="translate(21.371 41.275)" fill="#fff"/>
        <path id="路径_53126" data-name="路径 53126" d="M23.515,40.59a1.309,1.309,0,0,1,.917.394l0,0a1.719,1.719,0,0,1,.452.947c-.057.01-.109.022-.157.034L24.577,42a.276.276,0,0,1-.048.014.206.206,0,0,0-.05.012,1.446,1.446,0,0,0-.184.042.824.824,0,0,0-.816-.783q-.969-.051-1.052,1.5A2.332,2.332,0,0,0,22.6,43.97a.777.777,0,0,0,.691.43q.718.036.969-.892l.087.042c.03.016.061.03.089.042a.14.14,0,0,0,.05.03l.055.02.141.075c.046.022.093.046.143.069a1.988,1.988,0,0,1-.557.957,1.246,1.246,0,0,1-.458.277,1.373,1.373,0,0,1-.525.071,1.6,1.6,0,0,1-.707-.192,1.432,1.432,0,0,1-.515-.495,2.27,2.27,0,0,1-.267-.709,3.562,3.562,0,0,1-.057-.929,3.376,3.376,0,0,1,.166-.907,2.729,2.729,0,0,1,.335-.7,1.641,1.641,0,0,1,.569-.44,1.442,1.442,0,0,1,.707-.133" transform="translate(22.143 41.36)" fill="#fff"/>
        <path id="路径_53127" data-name="路径 53127" d="M23.542,40.724l.666-.03.115,2.568a1.638,1.638,0,0,0,.214.844.659.659,0,0,0,.271.224.821.821,0,0,0,.392.065.791.791,0,0,0,.386-.109.74.74,0,0,0,.25-.242,1.274,1.274,0,0,0,.1-.359,2.558,2.558,0,0,0,.02-.495l-.113-2.566.666-.03.109,2.455a4.161,4.161,0,0,1-.044.882,2.193,2.193,0,0,1-.194.616,1.05,1.05,0,0,1-.434.382,1.617,1.617,0,0,1-.662.153,2.215,2.215,0,0,1-.723-.073,1.062,1.062,0,0,1-.5-.315,1.738,1.738,0,0,1-.277-.586,3.931,3.931,0,0,1-.131-.9Z" transform="translate(23.989 41.365)" fill="#fff"/>
        <path id="路径_53128" data-name="路径 53128" d="M25.935,40.515l.493,3.618,1.8-.244.1.7-2.455.335L25.283,40.6Z" transform="translate(25.763 41.286)" fill="#fff"/>
        <path id="路径_53129" data-name="路径 53129" d="M28.634,44.715l-.8-3.555-1.1.248-.157-.7,2.865-.644.157.7-1.1.248.8,3.555Z" transform="translate(27.078 40.823)" fill="#fff"/>
        <path id="路径_53130" data-name="路径 53130" d="M28.166,40.476l.634-.208.8,2.441a1.653,1.653,0,0,0,.434.755.679.679,0,0,0,.321.143.843.843,0,0,0,.4-.042.809.809,0,0,0,.341-.21.746.746,0,0,0,.176-.3,1.279,1.279,0,0,0,0-.374,2.726,2.726,0,0,0-.113-.483l-.8-2.441.634-.208.767,2.336a4.205,4.205,0,0,1,.194.86,2.132,2.132,0,0,1-.02.646,1.045,1.045,0,0,1-.313.485,1.665,1.665,0,0,1-.6.327,2.163,2.163,0,0,1-.715.123,1.065,1.065,0,0,1-.569-.168,1.762,1.762,0,0,1-.424-.489,3.939,3.939,0,0,1-.367-.834Z" transform="translate(28.701 40.302)" fill="#fff"/>
        <path id="路径_53131" data-name="路径 53131" d="M31.426,41.836l.767,1.732-.608.267-1.765-3.99,1.46-.646a1.365,1.365,0,0,1,1.007-.083.951.951,0,0,1,.4.254,1.541,1.541,0,0,1,.285.446,1.211,1.211,0,0,1,.085.89,1.037,1.037,0,0,1-.166.275,1.2,1.2,0,0,1-.277.236l.028.061a.7.7,0,0,1,.184-.006.461.461,0,0,1,.168.048.878.878,0,0,1,.162.115c.063.05.135.115.22.19.038.034.075.069.111.1s.075.067.113.1c.055.048.1.095.155.143s.1.095.149.143l.125.115c.042.04.087.079.127.115s.087.077.133.119.089.081.131.117l-.7.311-.327-.281-.317-.279c-.107-.093-.21-.186-.315-.275-.127-.1-.238-.19-.335-.258a1.115,1.115,0,0,0-.224-.131l0,0a.884.884,0,0,0-.252-.02.753.753,0,0,0-.258.067Zm-.228-.517.662-.293a1.125,1.125,0,0,0,.468-.319.578.578,0,0,0,.022-.628q-.254-.575-1.014-.238l-.664.293Z" transform="translate(30.388 39.798)" fill="#fff"/>
        <path id="路径_53132" data-name="路径 53132" d="M33.093,41.923c.014.073.034.153.057.236s.046.166.067.242c.014.061.026.117.04.172s.026.109.044.168a.166.166,0,0,0,.012.05.326.326,0,0,1,.014.05l-.59.333c-.014-.061-.026-.121-.04-.184s-.026-.123-.04-.184l0,0c-.008-.026-.014-.05-.02-.077a.554.554,0,0,0-.018-.079c-.032-.147-.065-.295-.1-.44s-.067-.291-.1-.438c-.117-.513-.23-1.02-.343-1.524s-.224-1.012-.337-1.528l.707-.4.563.531q.285.27.569.545l.569.539c.188.18.376.357.559.535.1.1.212.2.319.3l.323.3c.065.061.133.125.2.192s.137.129.2.194l-.618.347-.668-.674Zm.937-1.238L32.378,39l-.046.026q.148.569.295,1.143t.293,1.145Z" transform="translate(32.345 39.058)" fill="#fff"/>
        <path id="路径_53133" data-name="路径 53133" d="M33.293,37.749l2.067,3.01,1.5-1.03.4.588-2.041,1.4-2.471-3.6Z" transform="translate(33.372 38.467)" fill="#fff"/>
        <path id="路径_53134" data-name="路径 53134" d="M34.689,37.513l.489-.456,1.752,1.878a1.664,1.664,0,0,0,.715.5.682.682,0,0,0,.349-.006.845.845,0,0,0,.341-.206.77.77,0,0,0,.22-.333.713.713,0,0,0,.034-.345,1.294,1.294,0,0,0-.157-.341,2.418,2.418,0,0,0-.307-.388L36.373,35.94l.487-.456,1.682,1.8a4.088,4.088,0,0,1,.535.7,2.077,2.077,0,0,1,.254.6,1.065,1.065,0,0,1-.081.571,1.636,1.636,0,0,1-.406.547,2.094,2.094,0,0,1-.6.412,1.048,1.048,0,0,1-.586.089,1.727,1.727,0,0,1-.59-.264,4.051,4.051,0,0,1-.686-.6Z" transform="translate(35.348 36.159)" fill="#fff"/>
        <path id="路径_53135" data-name="路径 53135" d="M39.649,38.815l-.408.466-3.285-2.873.45-.515,3.452.88a.146.146,0,0,0,.03-.05L37.5,34.637l.4-.456,3.287,2.873-.491.561-3.307-.852-.012.028-.014.026Z" transform="translate(36.639 34.831)" fill="#fff"/>
        <rect id="矩形_7167" data-name="矩形 7167" width="0.663" height="4.364" transform="translate(74.848 68.567) rotate(-52.764)" fill="#fff"/>
        <path id="路径_53136" data-name="路径 53136" d="M37.364,35l.386-.581,3.557,1.179-.291-.327c-.1-.109-.2-.222-.3-.341-.067-.075-.135-.153-.21-.236s-.145-.164-.218-.248-.145-.166-.218-.244-.137-.155-.2-.228l0,0c-.115-.125-.226-.25-.337-.378l-.333-.38L39.014,33l-.186-.21.369-.557.66.775q.327.385.662.775c.151.18.307.359.46.539s.309.363.464.547l.349.408c.119.141.234.279.349.41l-.446.67Z" transform="translate(38.074 32.845)" fill="#fff"/>
        <path id="路径_53137" data-name="路径 53137" d="M39.566,30.979l.561.3L39.2,33l.985.531.866-1.607.549.295-.866,1.607,1.155.624.957-1.775.592.319-1.27,2.354-3.84-2.072Z" transform="translate(39.055 31.568)" fill="#fff"/>
        <path id="路径_53138" data-name="路径 53138" d="M41.578,32.282l1.74.739-.258.61-4.018-1.706.626-1.468a1.364,1.364,0,0,1,.678-.749.95.95,0,0,1,.468-.091,1.6,1.6,0,0,1,.513.131,1.21,1.21,0,0,1,.67.594,1.082,1.082,0,0,1,.067.313,1.212,1.212,0,0,1-.04.359l.061.026a.712.712,0,0,1,.129-.129.487.487,0,0,1,.157-.081,1.046,1.046,0,0,1,.2-.026l.289-.012h.153c.05,0,.1,0,.149-.006.071,0,.141,0,.21,0s.137,0,.208,0h.172c.059,0,.115,0,.172,0s.113,0,.178,0,.119,0,.174,0l-.3.7-.432.018c-.139.006-.281.01-.42.014s-.281.008-.416.014c-.166.01-.3.024-.422.04a1.161,1.161,0,0,0-.256.059h.006a.994.994,0,0,0-.2.16.8.8,0,0,0-.145.224Zm-.521-.222.283-.668a1.14,1.14,0,0,0,.125-.551.581.581,0,0,0-.414-.474q-.578-.245-.9.521l-.285.666Z" transform="translate(39.784 30.179)" fill="#fff"/>
        <path id="路径_53139" data-name="路径 53139" d="M42.464,30.778c.61.075.987-.115,1.133-.573a.9.9,0,0,0,.01-.577l0,0a.634.634,0,0,0-.147-.208.541.541,0,0,0-.214-.125.834.834,0,0,0-.341-.04.627.627,0,0,0-.277.1,2.474,2.474,0,0,0-.2.232c-.087.109-.188.248-.3.418a3.519,3.519,0,0,1-.327.394,1.094,1.094,0,0,1-1.209.271,1.123,1.123,0,0,1-.432-.258,1.336,1.336,0,0,1-.3-.414,1.418,1.418,0,0,1-.061-.43,1.614,1.614,0,0,1,.079-.489,1.335,1.335,0,0,1,.575-.8,1.484,1.484,0,0,1,1.032-.1c0,.022-.01.05-.018.081s-.016.059-.022.077a.394.394,0,0,1-.02.077l-.02.079,0,.016c-.008.044-.018.093-.032.143s-.026.1-.038.149a.944.944,0,0,0-.588.063.67.67,0,0,0-.323.414.748.748,0,0,0-.01.513l0,0a.549.549,0,0,0,.341.3.4.4,0,0,0,.238,0,.608.608,0,0,0,.226-.135c.048-.046.117-.123.208-.23s.192-.246.307-.414a3.537,3.537,0,0,1,.353-.42,1.44,1.44,0,0,1,.339-.26,1.062,1.062,0,0,1,.4-.081,1.544,1.544,0,0,1,.507.081,1.443,1.443,0,0,1,.537.3,1.47,1.47,0,0,1,.345.446,1.232,1.232,0,0,1,.077.464,1.961,1.961,0,0,1-.095.547,1.668,1.668,0,0,1-.267.525,1.29,1.29,0,0,1-.42.351,1.573,1.573,0,0,1-.525.155,2.361,2.361,0,0,1-.644-.024Z" transform="translate(40.549 28.667)" fill="#fff"/>
        <rect id="矩形_7168" data-name="矩形 7168" width="0.664" height="4.365" transform="translate(81.001 55.984) rotate(-76.137)" fill="#fff"/>
        <path id="路径_53140" data-name="路径 53140" d="M44.752,28.335l-3.586-.648-.2,1.114-.709-.129.523-2.889.709.129-.2,1.112,3.586.648Z" transform="translate(41.021 26.274)" fill="#fff"/>
        <path id="路径_53141" data-name="路径 53141" d="M44.977,26.521l-1.837-.166c-.2.079-.4.157-.6.242s-.408.166-.612.244c-.109.046-.226.095-.347.143s-.238.1-.351.141l-.715.291.067-.749,1.853-.723c-.069-.044-.141-.089-.216-.131l-.23-.139L41.7,25.5l-.287-.178c-.055-.032-.111-.065-.172-.1s-.115-.069-.166-.1-.109-.065-.17-.1l-.164-.1.067-.741,2.4,1.512,1.833.166Z" transform="translate(41.285 24.635)" fill="#fff"/>
        <path id="路径_53142" data-name="路径 53142" d="M21.739,35.789h-.771v-.315a1.416,1.416,0,0,0,.648-.176.824.824,0,0,0,.252-.46l.022-.065h.287v3.5h-.438Z" transform="translate(21.367 35.435)" fill="#fff"/>
        <path id="路径_53143" data-name="路径 53143" d="M22.059,37.483H22.5a.58.58,0,0,0,.448.519.75.75,0,0,0,.135.012q.56,0,.725-.719a2.487,2.487,0,0,0,.069-.62,1.108,1.108,0,0,1-.812.392,1.016,1.016,0,0,1-.864-.414,1.157,1.157,0,0,1-.216-.707,1.139,1.139,0,0,1,.4-.929,1.127,1.127,0,0,1,.747-.256,1.008,1.008,0,0,1,.892.432,2.323,2.323,0,0,1,.3,1.232v.052a2.648,2.648,0,0,1-.321,1.425,1.092,1.092,0,0,1-.747.485,1.366,1.366,0,0,1-.2.016.926.926,0,0,1-.848-.466,1.324,1.324,0,0,1-.151-.454m1.08-2.342a.655.655,0,0,0-.583.315.844.844,0,0,0-.123.456.67.67,0,0,0,.688.763.686.686,0,0,0,.62-.321.763.763,0,0,0,.117-.42.778.778,0,0,0-.311-.66.667.667,0,0,0-.408-.133" transform="translate(22.406 35.423)" fill="#fff"/>
        <path id="路径_53144" data-name="路径 53144" d="M24.581,34.773a.941.941,0,0,1,.781.374,2.411,2.411,0,0,1,.327,1.407q0,1.3-.658,1.629a1.017,1.017,0,0,1-.45.1q-.848,0-1.05-1.04a3.848,3.848,0,0,1-.059-.719,2.313,2.313,0,0,1,.327-1.377.926.926,0,0,1,.711-.374Zm0,.374c-.456,0-.682.46-.682,1.383s.224,1.4.67,1.4q.572,0,.666-.923a4.075,4.075,0,0,0,.028-.5c0-.911-.226-1.365-.682-1.365" transform="translate(23.919 35.435)" fill="#fff"/>
        <path id="路径_53145" data-name="路径 53145" d="M24.864,37.483h.444a.58.58,0,0,0,.448.519.75.75,0,0,0,.135.012q.56,0,.725-.719a2.487,2.487,0,0,0,.069-.62,1.108,1.108,0,0,1-.812.392,1.016,1.016,0,0,1-.864-.414,1.157,1.157,0,0,1-.216-.707,1.139,1.139,0,0,1,.4-.929,1.127,1.127,0,0,1,.747-.256,1.008,1.008,0,0,1,.892.432,2.323,2.323,0,0,1,.3,1.232v.052a2.648,2.648,0,0,1-.321,1.425,1.092,1.092,0,0,1-.747.485,1.366,1.366,0,0,1-.2.016.926.926,0,0,1-.848-.466,1.324,1.324,0,0,1-.151-.454m1.08-2.342a.655.655,0,0,0-.583.315.844.844,0,0,0-.123.456.67.67,0,0,0,.688.763.686.686,0,0,0,.62-.321.763.763,0,0,0,.117-.42.778.778,0,0,0-.311-.66.667.667,0,0,0-.408-.133" transform="translate(25.264 35.423)" fill="#fff"/>
        <path id="路径_53146" data-name="路径 53146" d="M67.354,39.634l-.806-.04q.036-.706.036-1.421a28.389,28.389,0,0,0-56.779,0q0,.669.03,1.329l-.806.036Q9,38.858,9,38.172a29.195,29.195,0,0,1,58.39,0q0,.736-.036,1.462" transform="translate(9.172 9.148)" fill="#fff"/>
        <path id="路径_53147" data-name="路径 53147" d="M37.4,48.069a29.2,29.2,0,0,1-27.614-19.7l.761-.26a28.4,28.4,0,0,0,53.772-.2l.763.256A29.168,29.168,0,0,1,37.4,48.069" transform="translate(9.97 28.446)" fill="#fff"/>
      </g>
    </g>
  </g>
</svg>
